G04 start of page 4 for group 2 idx 6 *
G04 Title: Controller, outline *
G04 Creator: pcb 4.0.2 *
G04 CreationDate: Sun May 26 22:24:23 2019 UTC *
G04 For: luigi *
G04 Format: Gerber/RS-274X *
G04 PCB-Dimensions (mil): 1480.00 1600.00 *
G04 PCB-Coordinate-Origin: lower left *
%MOIN*%
%FSLAX25Y25*%
%LNOUTLINE*%
%ADD29C,0.0001*%
G54D29*G36*
X134992Y160000D02*X148000D01*
Y0D01*
X134992D01*
Y34574D01*
X135000Y34573D01*
X135849Y34640D01*
X136677Y34839D01*
X137464Y35165D01*
X138190Y35610D01*
X138837Y36163D01*
X139390Y36810D01*
X139835Y37536D01*
X140161Y38323D01*
X140360Y39151D01*
X140410Y40000D01*
X140360Y40849D01*
X140161Y41677D01*
X139835Y42464D01*
X139390Y43190D01*
X138837Y43837D01*
X138190Y44390D01*
X137464Y44835D01*
X136677Y45161D01*
X135849Y45360D01*
X135000Y45427D01*
X134992Y45426D01*
Y95507D01*
X138235Y95514D01*
X138465Y95569D01*
X138683Y95659D01*
X138884Y95783D01*
X139064Y95936D01*
X139217Y96116D01*
X139341Y96317D01*
X139431Y96535D01*
X139486Y96765D01*
X139500Y97000D01*
X139486Y103235D01*
X139431Y103465D01*
X139341Y103683D01*
X139217Y103884D01*
X139064Y104064D01*
X138884Y104217D01*
X138683Y104341D01*
X138465Y104431D01*
X138235Y104486D01*
X138000Y104500D01*
X134992Y104493D01*
Y105487D01*
X135000Y105486D01*
X135706Y105542D01*
X136395Y105707D01*
X137049Y105978D01*
X137653Y106348D01*
X138192Y106808D01*
X138652Y107347D01*
X139022Y107951D01*
X139293Y108605D01*
X139458Y109294D01*
X139500Y110000D01*
X139458Y110706D01*
X139293Y111395D01*
X139022Y112049D01*
X138652Y112653D01*
X138192Y113192D01*
X137653Y113652D01*
X137049Y114022D01*
X136395Y114293D01*
X135706Y114458D01*
X135000Y114514D01*
X134992Y114513D01*
Y160000D01*
G37*
G36*
X124992D02*X134992D01*
Y114513D01*
X134294Y114458D01*
X133605Y114293D01*
X132951Y114022D01*
X132347Y113652D01*
X131808Y113192D01*
X131348Y112653D01*
X130978Y112049D01*
X130707Y111395D01*
X130542Y110706D01*
X130486Y110000D01*
X130542Y109294D01*
X130707Y108605D01*
X130978Y107951D01*
X131348Y107347D01*
X131808Y106808D01*
X132347Y106348D01*
X132951Y105978D01*
X133605Y105707D01*
X134294Y105542D01*
X134992Y105487D01*
Y104493D01*
X131765Y104486D01*
X131535Y104431D01*
X131317Y104341D01*
X131116Y104217D01*
X130936Y104064D01*
X130783Y103884D01*
X130659Y103683D01*
X130569Y103465D01*
X130514Y103235D01*
X130500Y103000D01*
X130514Y96765D01*
X130569Y96535D01*
X130659Y96317D01*
X130783Y96116D01*
X130936Y95936D01*
X131116Y95783D01*
X131317Y95659D01*
X131535Y95569D01*
X131765Y95514D01*
X132000Y95500D01*
X134992Y95507D01*
Y45426D01*
X134151Y45360D01*
X133323Y45161D01*
X132536Y44835D01*
X131810Y44390D01*
X131163Y43837D01*
X130610Y43190D01*
X130165Y42464D01*
X129839Y41677D01*
X129640Y40849D01*
X129573Y40000D01*
X129640Y39151D01*
X129839Y38323D01*
X130165Y37536D01*
X130610Y36810D01*
X131163Y36163D01*
X131810Y35610D01*
X132536Y35165D01*
X133323Y34839D01*
X134151Y34640D01*
X134992Y34574D01*
Y0D01*
X124992D01*
Y74574D01*
X125000Y74573D01*
X125849Y74640D01*
X126677Y74839D01*
X127464Y75165D01*
X128190Y75610D01*
X128837Y76163D01*
X129390Y76810D01*
X129835Y77536D01*
X130161Y78323D01*
X130360Y79151D01*
X130410Y80000D01*
X130360Y80849D01*
X130161Y81677D01*
X129835Y82464D01*
X129390Y83190D01*
X128837Y83837D01*
X128190Y84390D01*
X127464Y84835D01*
X126677Y85161D01*
X125849Y85360D01*
X125000Y85427D01*
X124992Y85426D01*
Y160000D01*
G37*
G36*
X114992D02*X124992D01*
Y85426D01*
X124151Y85360D01*
X123323Y85161D01*
X122536Y84835D01*
X121810Y84390D01*
X121163Y83837D01*
X120610Y83190D01*
X120165Y82464D01*
X119839Y81677D01*
X119640Y80849D01*
X119573Y80000D01*
X119640Y79151D01*
X119839Y78323D01*
X120165Y77536D01*
X120610Y76810D01*
X121163Y76163D01*
X121810Y75610D01*
X122536Y75165D01*
X123323Y74839D01*
X124151Y74640D01*
X124992Y74574D01*
Y0D01*
X114992D01*
Y34595D01*
X119567Y34599D01*
X119720Y34636D01*
X119865Y34696D01*
X120000Y34778D01*
X120119Y34881D01*
X120222Y35000D01*
X120304Y35135D01*
X120364Y35280D01*
X120401Y35433D01*
X120410Y35590D01*
X120401Y44567D01*
X120364Y44720D01*
X120304Y44865D01*
X120222Y45000D01*
X120119Y45119D01*
X120000Y45222D01*
X119865Y45304D01*
X119720Y45364D01*
X119567Y45401D01*
X119410Y45410D01*
X114992Y45405D01*
Y105107D01*
X118635Y105114D01*
X118865Y105169D01*
X119083Y105259D01*
X119284Y105383D01*
X119464Y105536D01*
X119617Y105716D01*
X119741Y105917D01*
X119831Y106135D01*
X119886Y106365D01*
X119900Y106600D01*
X119886Y113635D01*
X119831Y113865D01*
X119741Y114083D01*
X119617Y114284D01*
X119464Y114464D01*
X119284Y114617D01*
X119083Y114741D01*
X118865Y114831D01*
X118635Y114886D01*
X118400Y114900D01*
X114992Y114893D01*
Y145085D01*
X115000Y145085D01*
X115769Y145145D01*
X116519Y145325D01*
X117231Y145621D01*
X117889Y146024D01*
X118476Y146524D01*
X118976Y147111D01*
X119379Y147769D01*
X119675Y148481D01*
X119855Y149231D01*
X119900Y150000D01*
X119855Y150769D01*
X119675Y151519D01*
X119379Y152231D01*
X118976Y152889D01*
X118476Y153476D01*
X117889Y153976D01*
X117231Y154379D01*
X116519Y154675D01*
X115769Y154855D01*
X115000Y154915D01*
X114992Y154915D01*
Y160000D01*
G37*
G36*
X94993D02*X114992D01*
Y154915D01*
X114231Y154855D01*
X113481Y154675D01*
X112769Y154379D01*
X112111Y153976D01*
X111524Y153476D01*
X111024Y152889D01*
X110621Y152231D01*
X110325Y151519D01*
X110145Y150769D01*
X110085Y150000D01*
X110145Y149231D01*
X110325Y148481D01*
X110621Y147769D01*
X111024Y147111D01*
X111524Y146524D01*
X112111Y146024D01*
X112769Y145621D01*
X113481Y145325D01*
X114231Y145145D01*
X114992Y145085D01*
Y114893D01*
X111365Y114886D01*
X111135Y114831D01*
X110917Y114741D01*
X110716Y114617D01*
X110536Y114464D01*
X110383Y114284D01*
X110259Y114083D01*
X110169Y113865D01*
X110114Y113635D01*
X110100Y113400D01*
X110114Y106365D01*
X110169Y106135D01*
X110259Y105917D01*
X110383Y105716D01*
X110536Y105536D01*
X110716Y105383D01*
X110917Y105259D01*
X111135Y105169D01*
X111365Y105114D01*
X111600Y105100D01*
X114992Y105107D01*
Y45405D01*
X110433Y45401D01*
X110280Y45364D01*
X110135Y45304D01*
X110000Y45222D01*
X109881Y45119D01*
X109778Y45000D01*
X109696Y44865D01*
X109636Y44720D01*
X109599Y44567D01*
X109590Y44410D01*
X109599Y35433D01*
X109636Y35280D01*
X109696Y35135D01*
X109778Y35000D01*
X109881Y34881D01*
X110000Y34778D01*
X110135Y34696D01*
X110280Y34636D01*
X110433Y34599D01*
X110590Y34590D01*
X114992Y34595D01*
Y0D01*
X94993D01*
Y5487D01*
X95000Y5486D01*
X95706Y5542D01*
X96395Y5707D01*
X97049Y5978D01*
X97653Y6348D01*
X98192Y6808D01*
X98652Y7347D01*
X99022Y7951D01*
X99293Y8605D01*
X99458Y9294D01*
X99500Y10000D01*
X99458Y10706D01*
X99293Y11395D01*
X99022Y12049D01*
X98652Y12653D01*
X98192Y13192D01*
X97653Y13652D01*
X97049Y14022D01*
X96395Y14293D01*
X95706Y14458D01*
X95000Y14514D01*
X94993Y14513D01*
Y15487D01*
X95000Y15486D01*
X95706Y15542D01*
X96395Y15707D01*
X97049Y15978D01*
X97653Y16348D01*
X98192Y16808D01*
X98652Y17347D01*
X99022Y17951D01*
X99293Y18605D01*
X99458Y19294D01*
X99500Y20000D01*
X99458Y20706D01*
X99293Y21395D01*
X99022Y22049D01*
X98652Y22653D01*
X98192Y23192D01*
X97653Y23652D01*
X97049Y24022D01*
X96395Y24293D01*
X95706Y24458D01*
X95000Y24514D01*
X94993Y24513D01*
Y25487D01*
X95000Y25486D01*
X95706Y25542D01*
X96395Y25707D01*
X97049Y25978D01*
X97653Y26348D01*
X98192Y26808D01*
X98652Y27347D01*
X99022Y27951D01*
X99293Y28605D01*
X99458Y29294D01*
X99500Y30000D01*
X99458Y30706D01*
X99293Y31395D01*
X99022Y32049D01*
X98652Y32653D01*
X98192Y33192D01*
X97653Y33652D01*
X97049Y34022D01*
X96395Y34293D01*
X95706Y34458D01*
X95000Y34514D01*
X94993Y34513D01*
Y35487D01*
X95000Y35486D01*
X95706Y35542D01*
X96395Y35707D01*
X97049Y35978D01*
X97653Y36348D01*
X98192Y36808D01*
X98652Y37347D01*
X99022Y37951D01*
X99293Y38605D01*
X99458Y39294D01*
X99500Y40000D01*
X99458Y40706D01*
X99293Y41395D01*
X99022Y42049D01*
X98652Y42653D01*
X98192Y43192D01*
X97653Y43652D01*
X97049Y44022D01*
X96395Y44293D01*
X95706Y44458D01*
X95000Y44514D01*
X94993Y44513D01*
Y45487D01*
X95000Y45486D01*
X95706Y45542D01*
X96395Y45707D01*
X97049Y45978D01*
X97653Y46348D01*
X98192Y46808D01*
X98652Y47347D01*
X99022Y47951D01*
X99293Y48605D01*
X99458Y49294D01*
X99500Y50000D01*
X99458Y50706D01*
X99293Y51395D01*
X99022Y52049D01*
X98652Y52653D01*
X98192Y53192D01*
X97653Y53652D01*
X97049Y54022D01*
X96395Y54293D01*
X95706Y54458D01*
X95000Y54514D01*
X94993Y54513D01*
Y55487D01*
X95000Y55486D01*
X95706Y55542D01*
X96395Y55707D01*
X97049Y55978D01*
X97653Y56348D01*
X98192Y56808D01*
X98652Y57347D01*
X99022Y57951D01*
X99293Y58605D01*
X99458Y59294D01*
X99500Y60000D01*
X99458Y60706D01*
X99293Y61395D01*
X99022Y62049D01*
X98652Y62653D01*
X98192Y63192D01*
X97653Y63652D01*
X97049Y64022D01*
X96395Y64293D01*
X95706Y64458D01*
X95000Y64514D01*
X94993Y64513D01*
Y65487D01*
X95000Y65486D01*
X95706Y65542D01*
X96395Y65707D01*
X97049Y65978D01*
X97653Y66348D01*
X98192Y66808D01*
X98652Y67347D01*
X99022Y67951D01*
X99293Y68605D01*
X99458Y69294D01*
X99500Y70000D01*
X99458Y70706D01*
X99293Y71395D01*
X99022Y72049D01*
X98652Y72653D01*
X98192Y73192D01*
X97653Y73652D01*
X97049Y74022D01*
X96395Y74293D01*
X95706Y74458D01*
X95000Y74514D01*
X94993Y74513D01*
Y75487D01*
X95000Y75486D01*
X95706Y75542D01*
X96395Y75707D01*
X97049Y75978D01*
X97653Y76348D01*
X98192Y76808D01*
X98652Y77347D01*
X99022Y77951D01*
X99293Y78605D01*
X99458Y79294D01*
X99500Y80000D01*
X99458Y80706D01*
X99293Y81395D01*
X99022Y82049D01*
X98652Y82653D01*
X98192Y83192D01*
X97653Y83652D01*
X97049Y84022D01*
X96395Y84293D01*
X95706Y84458D01*
X95000Y84514D01*
X94993Y84513D01*
Y85487D01*
X95000Y85486D01*
X95706Y85542D01*
X96395Y85707D01*
X97049Y85978D01*
X97653Y86348D01*
X98192Y86808D01*
X98652Y87347D01*
X99022Y87951D01*
X99293Y88605D01*
X99458Y89294D01*
X99500Y90000D01*
X99458Y90706D01*
X99293Y91395D01*
X99022Y92049D01*
X98652Y92653D01*
X98192Y93192D01*
X97653Y93652D01*
X97049Y94022D01*
X96395Y94293D01*
X95706Y94458D01*
X95000Y94514D01*
X94993Y94513D01*
Y95487D01*
X95000Y95486D01*
X95706Y95542D01*
X96395Y95707D01*
X97049Y95978D01*
X97653Y96348D01*
X98192Y96808D01*
X98652Y97347D01*
X99022Y97951D01*
X99293Y98605D01*
X99458Y99294D01*
X99500Y100000D01*
X99458Y100706D01*
X99293Y101395D01*
X99022Y102049D01*
X98652Y102653D01*
X98192Y103192D01*
X97653Y103652D01*
X97049Y104022D01*
X96395Y104293D01*
X95706Y104458D01*
X95000Y104514D01*
X94993Y104513D01*
Y105487D01*
X95000Y105486D01*
X95706Y105542D01*
X96395Y105707D01*
X97049Y105978D01*
X97653Y106348D01*
X98192Y106808D01*
X98652Y107347D01*
X99022Y107951D01*
X99293Y108605D01*
X99458Y109294D01*
X99500Y110000D01*
X99458Y110706D01*
X99293Y111395D01*
X99022Y112049D01*
X98652Y112653D01*
X98192Y113192D01*
X97653Y113652D01*
X97049Y114022D01*
X96395Y114293D01*
X95706Y114458D01*
X95000Y114514D01*
X94993Y114513D01*
Y115487D01*
X95000Y115486D01*
X95706Y115542D01*
X96395Y115707D01*
X97049Y115978D01*
X97653Y116348D01*
X98192Y116808D01*
X98652Y117347D01*
X99022Y117951D01*
X99293Y118605D01*
X99458Y119294D01*
X99500Y120000D01*
X99458Y120706D01*
X99293Y121395D01*
X99022Y122049D01*
X98652Y122653D01*
X98192Y123192D01*
X97653Y123652D01*
X97049Y124022D01*
X96395Y124293D01*
X95706Y124458D01*
X95000Y124514D01*
X94993Y124513D01*
Y125487D01*
X95000Y125486D01*
X95706Y125542D01*
X96395Y125707D01*
X97049Y125978D01*
X97653Y126348D01*
X98192Y126808D01*
X98652Y127347D01*
X99022Y127951D01*
X99293Y128605D01*
X99458Y129294D01*
X99500Y130000D01*
X99458Y130706D01*
X99293Y131395D01*
X99022Y132049D01*
X98652Y132653D01*
X98192Y133192D01*
X97653Y133652D01*
X97049Y134022D01*
X96395Y134293D01*
X95706Y134458D01*
X95000Y134514D01*
X94993Y134513D01*
Y135487D01*
X95000Y135486D01*
X95706Y135542D01*
X96395Y135707D01*
X97049Y135978D01*
X97653Y136348D01*
X98192Y136808D01*
X98652Y137347D01*
X99022Y137951D01*
X99293Y138605D01*
X99458Y139294D01*
X99500Y140000D01*
X99458Y140706D01*
X99293Y141395D01*
X99022Y142049D01*
X98652Y142653D01*
X98192Y143192D01*
X97653Y143652D01*
X97049Y144022D01*
X96395Y144293D01*
X95706Y144458D01*
X95000Y144514D01*
X94993Y144513D01*
Y145487D01*
X95000Y145486D01*
X95706Y145542D01*
X96395Y145707D01*
X97049Y145978D01*
X97653Y146348D01*
X98192Y146808D01*
X98652Y147347D01*
X99022Y147951D01*
X99293Y148605D01*
X99458Y149294D01*
X99500Y150000D01*
X99458Y150706D01*
X99293Y151395D01*
X99022Y152049D01*
X98652Y152653D01*
X98192Y153192D01*
X97653Y153652D01*
X97049Y154022D01*
X96395Y154293D01*
X95706Y154458D01*
X95000Y154514D01*
X94993Y154513D01*
Y160000D01*
G37*
G36*
X34993D02*X94993D01*
Y154513D01*
X94294Y154458D01*
X93605Y154293D01*
X92951Y154022D01*
X92347Y153652D01*
X91808Y153192D01*
X91348Y152653D01*
X90978Y152049D01*
X90707Y151395D01*
X90542Y150706D01*
X90486Y150000D01*
X90542Y149294D01*
X90707Y148605D01*
X90978Y147951D01*
X91348Y147347D01*
X91808Y146808D01*
X92347Y146348D01*
X92951Y145978D01*
X93605Y145707D01*
X94294Y145542D01*
X94993Y145487D01*
Y144513D01*
X94294Y144458D01*
X93605Y144293D01*
X92951Y144022D01*
X92347Y143652D01*
X91808Y143192D01*
X91348Y142653D01*
X90978Y142049D01*
X90707Y141395D01*
X90542Y140706D01*
X90524Y140486D01*
X90486Y140000D01*
X90542Y139294D01*
X90707Y138605D01*
X90978Y137951D01*
X91348Y137347D01*
X91808Y136808D01*
X92347Y136348D01*
X92951Y135978D01*
X93605Y135707D01*
X94294Y135542D01*
X94993Y135487D01*
Y134513D01*
X94294Y134458D01*
X93605Y134293D01*
X92951Y134022D01*
X92347Y133652D01*
X91808Y133192D01*
X91348Y132653D01*
X90978Y132049D01*
X90707Y131395D01*
X90542Y130706D01*
X90524Y130486D01*
X90486Y130000D01*
X90542Y129294D01*
X90707Y128605D01*
X90978Y127951D01*
X91348Y127347D01*
X91808Y126808D01*
X92347Y126348D01*
X92951Y125978D01*
X93605Y125707D01*
X94294Y125542D01*
X94993Y125487D01*
Y124513D01*
X94294Y124458D01*
X93605Y124293D01*
X92951Y124022D01*
X92347Y123652D01*
X91808Y123192D01*
X91348Y122653D01*
X90978Y122049D01*
X90707Y121395D01*
X90542Y120706D01*
X90524Y120486D01*
X90486Y120000D01*
X90542Y119294D01*
X90707Y118605D01*
X90978Y117951D01*
X91348Y117347D01*
X91808Y116808D01*
X92347Y116348D01*
X92951Y115978D01*
X93605Y115707D01*
X94294Y115542D01*
X94993Y115487D01*
Y114513D01*
X94294Y114458D01*
X93605Y114293D01*
X92951Y114022D01*
X92347Y113652D01*
X91808Y113192D01*
X91348Y112653D01*
X90978Y112049D01*
X90707Y111395D01*
X90542Y110706D01*
X90524Y110486D01*
X90486Y110000D01*
X90542Y109294D01*
X90707Y108605D01*
X90978Y107951D01*
X91348Y107347D01*
X91808Y106808D01*
X92347Y106348D01*
X92951Y105978D01*
X93605Y105707D01*
X94294Y105542D01*
X94993Y105487D01*
Y104513D01*
X94294Y104458D01*
X93605Y104293D01*
X92951Y104022D01*
X92347Y103652D01*
X91808Y103192D01*
X91348Y102653D01*
X90978Y102049D01*
X90707Y101395D01*
X90542Y100706D01*
X90524Y100486D01*
X90486Y100000D01*
X90542Y99294D01*
X90707Y98605D01*
X90978Y97951D01*
X91348Y97347D01*
X91808Y96808D01*
X92347Y96348D01*
X92951Y95978D01*
X93605Y95707D01*
X94294Y95542D01*
X94993Y95487D01*
Y94513D01*
X94294Y94458D01*
X93605Y94293D01*
X92951Y94022D01*
X92347Y93652D01*
X91808Y93192D01*
X91348Y92653D01*
X90978Y92049D01*
X90707Y91395D01*
X90542Y90706D01*
X90524Y90486D01*
X90486Y90000D01*
X90542Y89294D01*
X90707Y88605D01*
X90978Y87951D01*
X91348Y87347D01*
X91808Y86808D01*
X92347Y86348D01*
X92951Y85978D01*
X93605Y85707D01*
X94294Y85542D01*
X94993Y85487D01*
Y84513D01*
X94294Y84458D01*
X93605Y84293D01*
X92951Y84022D01*
X92347Y83652D01*
X91808Y83192D01*
X91348Y82653D01*
X90978Y82049D01*
X90707Y81395D01*
X90542Y80706D01*
X90524Y80486D01*
X90486Y80000D01*
X90542Y79294D01*
X90707Y78605D01*
X90978Y77951D01*
X91348Y77347D01*
X91808Y76808D01*
X92347Y76348D01*
X92951Y75978D01*
X93605Y75707D01*
X94294Y75542D01*
X94993Y75487D01*
Y74513D01*
X94294Y74458D01*
X93605Y74293D01*
X92951Y74022D01*
X92347Y73652D01*
X91808Y73192D01*
X91348Y72653D01*
X90978Y72049D01*
X90707Y71395D01*
X90542Y70706D01*
X90524Y70486D01*
X90486Y70000D01*
X90542Y69294D01*
X90707Y68605D01*
X90978Y67951D01*
X91348Y67347D01*
X91808Y66808D01*
X92347Y66348D01*
X92951Y65978D01*
X93605Y65707D01*
X94294Y65542D01*
X94993Y65487D01*
Y64513D01*
X94294Y64458D01*
X93605Y64293D01*
X92951Y64022D01*
X92347Y63652D01*
X91808Y63192D01*
X91348Y62653D01*
X90978Y62049D01*
X90707Y61395D01*
X90542Y60706D01*
X90524Y60486D01*
X90486Y60000D01*
X90542Y59294D01*
X90707Y58605D01*
X90978Y57951D01*
X91348Y57347D01*
X91808Y56808D01*
X92347Y56348D01*
X92951Y55978D01*
X93605Y55707D01*
X94294Y55542D01*
X94993Y55487D01*
Y54513D01*
X94294Y54458D01*
X93605Y54293D01*
X92951Y54022D01*
X92347Y53652D01*
X91808Y53192D01*
X91348Y52653D01*
X90978Y52049D01*
X90707Y51395D01*
X90542Y50706D01*
X90524Y50486D01*
X90486Y50000D01*
X90542Y49294D01*
X90707Y48605D01*
X90978Y47951D01*
X91348Y47347D01*
X91808Y46808D01*
X92347Y46348D01*
X92951Y45978D01*
X93605Y45707D01*
X94294Y45542D01*
X94993Y45487D01*
Y44513D01*
X94294Y44458D01*
X93605Y44293D01*
X92951Y44022D01*
X92347Y43652D01*
X91808Y43192D01*
X91348Y42653D01*
X90978Y42049D01*
X90707Y41395D01*
X90542Y40706D01*
X90524Y40486D01*
X90486Y40000D01*
X90542Y39294D01*
X90707Y38605D01*
X90978Y37951D01*
X91348Y37347D01*
X91808Y36808D01*
X92347Y36348D01*
X92951Y35978D01*
X93605Y35707D01*
X94294Y35542D01*
X94993Y35487D01*
Y34513D01*
X94294Y34458D01*
X93605Y34293D01*
X92951Y34022D01*
X92347Y33652D01*
X91808Y33192D01*
X91348Y32653D01*
X90978Y32049D01*
X90707Y31395D01*
X90542Y30706D01*
X90524Y30486D01*
X90486Y30000D01*
X90542Y29294D01*
X90707Y28605D01*
X90978Y27951D01*
X91348Y27347D01*
X91808Y26808D01*
X92347Y26348D01*
X92951Y25978D01*
X93605Y25707D01*
X94294Y25542D01*
X94993Y25487D01*
Y24513D01*
X94294Y24458D01*
X93605Y24293D01*
X92951Y24022D01*
X92347Y23652D01*
X91808Y23192D01*
X91348Y22653D01*
X90978Y22049D01*
X90707Y21395D01*
X90542Y20706D01*
X90524Y20486D01*
X90486Y20000D01*
X90542Y19294D01*
X90707Y18605D01*
X90978Y17951D01*
X91348Y17347D01*
X91808Y16808D01*
X92347Y16348D01*
X92951Y15978D01*
X93605Y15707D01*
X94294Y15542D01*
X94993Y15487D01*
Y14513D01*
X94294Y14458D01*
X93605Y14293D01*
X92951Y14022D01*
X92347Y13652D01*
X91808Y13192D01*
X91348Y12653D01*
X90978Y12049D01*
X90707Y11395D01*
X90542Y10706D01*
X90524Y10486D01*
X90486Y10000D01*
X90542Y9294D01*
X90707Y8605D01*
X90978Y7951D01*
X91348Y7347D01*
X91808Y6808D01*
X92347Y6348D01*
X92951Y5978D01*
X93605Y5707D01*
X94294Y5542D01*
X94993Y5487D01*
Y0D01*
X34993D01*
Y5487D01*
X35000Y5486D01*
X35706Y5542D01*
X36395Y5707D01*
X37049Y5978D01*
X37653Y6348D01*
X38192Y6808D01*
X38652Y7347D01*
X39022Y7951D01*
X39293Y8605D01*
X39458Y9294D01*
X39500Y10000D01*
X39458Y10706D01*
X39293Y11395D01*
X39022Y12049D01*
X38652Y12653D01*
X38192Y13192D01*
X37653Y13652D01*
X37049Y14022D01*
X36395Y14293D01*
X35706Y14458D01*
X35000Y14514D01*
X34993Y14513D01*
Y15487D01*
X35000Y15486D01*
X35706Y15542D01*
X36395Y15707D01*
X37049Y15978D01*
X37653Y16348D01*
X38192Y16808D01*
X38652Y17347D01*
X39022Y17951D01*
X39293Y18605D01*
X39458Y19294D01*
X39500Y20000D01*
X39458Y20706D01*
X39293Y21395D01*
X39022Y22049D01*
X38652Y22653D01*
X38192Y23192D01*
X37653Y23652D01*
X37049Y24022D01*
X36395Y24293D01*
X35706Y24458D01*
X35000Y24514D01*
X34993Y24513D01*
Y25487D01*
X35000Y25486D01*
X35706Y25542D01*
X36395Y25707D01*
X37049Y25978D01*
X37653Y26348D01*
X38192Y26808D01*
X38652Y27347D01*
X39022Y27951D01*
X39293Y28605D01*
X39458Y29294D01*
X39500Y30000D01*
X39458Y30706D01*
X39293Y31395D01*
X39022Y32049D01*
X38652Y32653D01*
X38192Y33192D01*
X37653Y33652D01*
X37049Y34022D01*
X36395Y34293D01*
X35706Y34458D01*
X35000Y34514D01*
X34993Y34513D01*
Y35487D01*
X35000Y35486D01*
X35706Y35542D01*
X36395Y35707D01*
X37049Y35978D01*
X37653Y36348D01*
X38192Y36808D01*
X38652Y37347D01*
X39022Y37951D01*
X39293Y38605D01*
X39458Y39294D01*
X39500Y40000D01*
X39458Y40706D01*
X39293Y41395D01*
X39022Y42049D01*
X38652Y42653D01*
X38192Y43192D01*
X37653Y43652D01*
X37049Y44022D01*
X36395Y44293D01*
X35706Y44458D01*
X35000Y44514D01*
X34993Y44513D01*
Y45487D01*
X35000Y45486D01*
X35706Y45542D01*
X36395Y45707D01*
X37049Y45978D01*
X37653Y46348D01*
X38192Y46808D01*
X38652Y47347D01*
X39022Y47951D01*
X39293Y48605D01*
X39458Y49294D01*
X39500Y50000D01*
X39458Y50706D01*
X39293Y51395D01*
X39022Y52049D01*
X38652Y52653D01*
X38192Y53192D01*
X37653Y53652D01*
X37049Y54022D01*
X36395Y54293D01*
X35706Y54458D01*
X35000Y54514D01*
X34993Y54513D01*
Y55487D01*
X35000Y55486D01*
X35706Y55542D01*
X36395Y55707D01*
X37049Y55978D01*
X37653Y56348D01*
X38192Y56808D01*
X38652Y57347D01*
X39022Y57951D01*
X39293Y58605D01*
X39458Y59294D01*
X39500Y60000D01*
X39458Y60706D01*
X39293Y61395D01*
X39022Y62049D01*
X38652Y62653D01*
X38192Y63192D01*
X37653Y63652D01*
X37049Y64022D01*
X36395Y64293D01*
X35706Y64458D01*
X35000Y64514D01*
X34993Y64513D01*
Y65487D01*
X35000Y65486D01*
X35706Y65542D01*
X36395Y65707D01*
X37049Y65978D01*
X37653Y66348D01*
X38192Y66808D01*
X38652Y67347D01*
X39022Y67951D01*
X39293Y68605D01*
X39458Y69294D01*
X39500Y70000D01*
X39458Y70706D01*
X39293Y71395D01*
X39022Y72049D01*
X38652Y72653D01*
X38192Y73192D01*
X37653Y73652D01*
X37049Y74022D01*
X36395Y74293D01*
X35706Y74458D01*
X35000Y74514D01*
X34993Y74513D01*
Y75487D01*
X35000Y75486D01*
X35706Y75542D01*
X36395Y75707D01*
X37049Y75978D01*
X37653Y76348D01*
X38192Y76808D01*
X38652Y77347D01*
X39022Y77951D01*
X39293Y78605D01*
X39458Y79294D01*
X39500Y80000D01*
X39458Y80706D01*
X39293Y81395D01*
X39022Y82049D01*
X38652Y82653D01*
X38192Y83192D01*
X37653Y83652D01*
X37049Y84022D01*
X36395Y84293D01*
X35706Y84458D01*
X35000Y84514D01*
X34993Y84513D01*
Y85487D01*
X35000Y85486D01*
X35706Y85542D01*
X36395Y85707D01*
X37049Y85978D01*
X37653Y86348D01*
X38192Y86808D01*
X38652Y87347D01*
X39022Y87951D01*
X39293Y88605D01*
X39458Y89294D01*
X39500Y90000D01*
X39458Y90706D01*
X39293Y91395D01*
X39022Y92049D01*
X38652Y92653D01*
X38192Y93192D01*
X37653Y93652D01*
X37049Y94022D01*
X36395Y94293D01*
X35706Y94458D01*
X35000Y94514D01*
X34993Y94513D01*
Y95487D01*
X35000Y95486D01*
X35706Y95542D01*
X36395Y95707D01*
X37049Y95978D01*
X37653Y96348D01*
X38192Y96808D01*
X38652Y97347D01*
X39022Y97951D01*
X39293Y98605D01*
X39458Y99294D01*
X39500Y100000D01*
X39458Y100706D01*
X39293Y101395D01*
X39022Y102049D01*
X38652Y102653D01*
X38192Y103192D01*
X37653Y103652D01*
X37049Y104022D01*
X36395Y104293D01*
X35706Y104458D01*
X35000Y104514D01*
X34993Y104513D01*
Y105487D01*
X35000Y105486D01*
X35706Y105542D01*
X36395Y105707D01*
X37049Y105978D01*
X37653Y106348D01*
X38192Y106808D01*
X38652Y107347D01*
X39022Y107951D01*
X39293Y108605D01*
X39458Y109294D01*
X39500Y110000D01*
X39458Y110706D01*
X39293Y111395D01*
X39022Y112049D01*
X38652Y112653D01*
X38192Y113192D01*
X37653Y113652D01*
X37049Y114022D01*
X36395Y114293D01*
X35706Y114458D01*
X35000Y114514D01*
X34993Y114513D01*
Y115487D01*
X35000Y115486D01*
X35706Y115542D01*
X36395Y115707D01*
X37049Y115978D01*
X37653Y116348D01*
X38192Y116808D01*
X38652Y117347D01*
X39022Y117951D01*
X39293Y118605D01*
X39458Y119294D01*
X39500Y120000D01*
X39458Y120706D01*
X39293Y121395D01*
X39022Y122049D01*
X38652Y122653D01*
X38192Y123192D01*
X37653Y123652D01*
X37049Y124022D01*
X36395Y124293D01*
X35706Y124458D01*
X35000Y124514D01*
X34993Y124513D01*
Y125487D01*
X35000Y125486D01*
X35706Y125542D01*
X36395Y125707D01*
X37049Y125978D01*
X37653Y126348D01*
X38192Y126808D01*
X38652Y127347D01*
X39022Y127951D01*
X39293Y128605D01*
X39458Y129294D01*
X39500Y130000D01*
X39458Y130706D01*
X39293Y131395D01*
X39022Y132049D01*
X38652Y132653D01*
X38192Y133192D01*
X37653Y133652D01*
X37049Y134022D01*
X36395Y134293D01*
X35706Y134458D01*
X35000Y134514D01*
X34993Y134513D01*
Y135487D01*
X35000Y135486D01*
X35706Y135542D01*
X36395Y135707D01*
X37049Y135978D01*
X37653Y136348D01*
X38192Y136808D01*
X38652Y137347D01*
X39022Y137951D01*
X39293Y138605D01*
X39458Y139294D01*
X39500Y140000D01*
X39458Y140706D01*
X39293Y141395D01*
X39022Y142049D01*
X38652Y142653D01*
X38192Y143192D01*
X37653Y143652D01*
X37049Y144022D01*
X36395Y144293D01*
X35706Y144458D01*
X35000Y144514D01*
X34993Y144513D01*
Y145507D01*
X38235Y145514D01*
X38465Y145569D01*
X38683Y145659D01*
X38884Y145783D01*
X39064Y145936D01*
X39217Y146116D01*
X39341Y146317D01*
X39431Y146535D01*
X39486Y146765D01*
X39500Y147000D01*
X39486Y153235D01*
X39431Y153465D01*
X39341Y153683D01*
X39217Y153884D01*
X39064Y154064D01*
X38884Y154217D01*
X38683Y154341D01*
X38465Y154431D01*
X38235Y154486D01*
X38000Y154500D01*
X34993Y154493D01*
Y160000D01*
G37*
G36*
X14992D02*X34993D01*
Y154493D01*
X31765Y154486D01*
X31535Y154431D01*
X31317Y154341D01*
X31116Y154217D01*
X30936Y154064D01*
X30783Y153884D01*
X30659Y153683D01*
X30569Y153465D01*
X30514Y153235D01*
X30500Y153000D01*
X30514Y146765D01*
X30569Y146535D01*
X30659Y146317D01*
X30783Y146116D01*
X30936Y145936D01*
X31116Y145783D01*
X31317Y145659D01*
X31535Y145569D01*
X31765Y145514D01*
X32000Y145500D01*
X34993Y145507D01*
Y144513D01*
X34294Y144458D01*
X33605Y144293D01*
X32951Y144022D01*
X32347Y143652D01*
X31808Y143192D01*
X31348Y142653D01*
X30978Y142049D01*
X30707Y141395D01*
X30542Y140706D01*
X30486Y140000D01*
X30542Y139294D01*
X30707Y138605D01*
X30978Y137951D01*
X31348Y137347D01*
X31808Y136808D01*
X32347Y136348D01*
X32951Y135978D01*
X33605Y135707D01*
X34294Y135542D01*
X34993Y135487D01*
Y134513D01*
X34294Y134458D01*
X33605Y134293D01*
X32951Y134022D01*
X32347Y133652D01*
X31808Y133192D01*
X31348Y132653D01*
X30978Y132049D01*
X30707Y131395D01*
X30542Y130706D01*
X30486Y130000D01*
X30542Y129294D01*
X30707Y128605D01*
X30978Y127951D01*
X31348Y127347D01*
X31808Y126808D01*
X32347Y126348D01*
X32951Y125978D01*
X33605Y125707D01*
X34294Y125542D01*
X34993Y125487D01*
Y124513D01*
X34294Y124458D01*
X33605Y124293D01*
X32951Y124022D01*
X32347Y123652D01*
X31808Y123192D01*
X31348Y122653D01*
X30978Y122049D01*
X30707Y121395D01*
X30542Y120706D01*
X30486Y120000D01*
X30542Y119294D01*
X30707Y118605D01*
X30978Y117951D01*
X31348Y117347D01*
X31808Y116808D01*
X32347Y116348D01*
X32951Y115978D01*
X33605Y115707D01*
X34294Y115542D01*
X34993Y115487D01*
Y114513D01*
X34294Y114458D01*
X33605Y114293D01*
X32951Y114022D01*
X32347Y113652D01*
X31808Y113192D01*
X31348Y112653D01*
X30978Y112049D01*
X30707Y111395D01*
X30542Y110706D01*
X30486Y110000D01*
X30542Y109294D01*
X30707Y108605D01*
X30978Y107951D01*
X31348Y107347D01*
X31808Y106808D01*
X32347Y106348D01*
X32951Y105978D01*
X33605Y105707D01*
X34294Y105542D01*
X34993Y105487D01*
Y104513D01*
X34294Y104458D01*
X33605Y104293D01*
X32951Y104022D01*
X32347Y103652D01*
X31808Y103192D01*
X31348Y102653D01*
X30978Y102049D01*
X30707Y101395D01*
X30542Y100706D01*
X30486Y100000D01*
X30542Y99294D01*
X30707Y98605D01*
X30978Y97951D01*
X31348Y97347D01*
X31808Y96808D01*
X32347Y96348D01*
X32951Y95978D01*
X33605Y95707D01*
X34294Y95542D01*
X34993Y95487D01*
Y94513D01*
X34294Y94458D01*
X33605Y94293D01*
X32951Y94022D01*
X32347Y93652D01*
X31808Y93192D01*
X31348Y92653D01*
X30978Y92049D01*
X30707Y91395D01*
X30542Y90706D01*
X30486Y90000D01*
X30542Y89294D01*
X30707Y88605D01*
X30978Y87951D01*
X31348Y87347D01*
X31808Y86808D01*
X32347Y86348D01*
X32951Y85978D01*
X33605Y85707D01*
X34294Y85542D01*
X34993Y85487D01*
Y84513D01*
X34294Y84458D01*
X33605Y84293D01*
X32951Y84022D01*
X32347Y83652D01*
X31808Y83192D01*
X31348Y82653D01*
X30978Y82049D01*
X30707Y81395D01*
X30542Y80706D01*
X30486Y80000D01*
X30542Y79294D01*
X30707Y78605D01*
X30978Y77951D01*
X31348Y77347D01*
X31808Y76808D01*
X32347Y76348D01*
X32951Y75978D01*
X33605Y75707D01*
X34294Y75542D01*
X34993Y75487D01*
Y74513D01*
X34294Y74458D01*
X33605Y74293D01*
X32951Y74022D01*
X32347Y73652D01*
X31808Y73192D01*
X31348Y72653D01*
X30978Y72049D01*
X30707Y71395D01*
X30542Y70706D01*
X30486Y70000D01*
X30542Y69294D01*
X30707Y68605D01*
X30978Y67951D01*
X31348Y67347D01*
X31808Y66808D01*
X32347Y66348D01*
X32951Y65978D01*
X33605Y65707D01*
X34294Y65542D01*
X34993Y65487D01*
Y64513D01*
X34294Y64458D01*
X33605Y64293D01*
X32951Y64022D01*
X32347Y63652D01*
X31808Y63192D01*
X31348Y62653D01*
X30978Y62049D01*
X30707Y61395D01*
X30542Y60706D01*
X30486Y60000D01*
X30542Y59294D01*
X30707Y58605D01*
X30978Y57951D01*
X31348Y57347D01*
X31808Y56808D01*
X32347Y56348D01*
X32951Y55978D01*
X33605Y55707D01*
X34294Y55542D01*
X34993Y55487D01*
Y54513D01*
X34294Y54458D01*
X33605Y54293D01*
X32951Y54022D01*
X32347Y53652D01*
X31808Y53192D01*
X31348Y52653D01*
X30978Y52049D01*
X30707Y51395D01*
X30542Y50706D01*
X30486Y50000D01*
X30542Y49294D01*
X30707Y48605D01*
X30978Y47951D01*
X31348Y47347D01*
X31808Y46808D01*
X32347Y46348D01*
X32951Y45978D01*
X33605Y45707D01*
X34294Y45542D01*
X34993Y45487D01*
Y44513D01*
X34294Y44458D01*
X33605Y44293D01*
X32951Y44022D01*
X32347Y43652D01*
X31808Y43192D01*
X31348Y42653D01*
X30978Y42049D01*
X30707Y41395D01*
X30542Y40706D01*
X30486Y40000D01*
X30542Y39294D01*
X30707Y38605D01*
X30978Y37951D01*
X31348Y37347D01*
X31808Y36808D01*
X32347Y36348D01*
X32951Y35978D01*
X33605Y35707D01*
X34294Y35542D01*
X34993Y35487D01*
Y34513D01*
X34294Y34458D01*
X33605Y34293D01*
X32951Y34022D01*
X32347Y33652D01*
X31808Y33192D01*
X31348Y32653D01*
X30978Y32049D01*
X30707Y31395D01*
X30542Y30706D01*
X30486Y30000D01*
X30542Y29294D01*
X30707Y28605D01*
X30978Y27951D01*
X31348Y27347D01*
X31808Y26808D01*
X32347Y26348D01*
X32951Y25978D01*
X33605Y25707D01*
X34294Y25542D01*
X34993Y25487D01*
Y24513D01*
X34294Y24458D01*
X33605Y24293D01*
X32951Y24022D01*
X32347Y23652D01*
X31808Y23192D01*
X31348Y22653D01*
X30978Y22049D01*
X30707Y21395D01*
X30542Y20706D01*
X30486Y20000D01*
X30542Y19294D01*
X30707Y18605D01*
X30978Y17951D01*
X31348Y17347D01*
X31808Y16808D01*
X32347Y16348D01*
X32951Y15978D01*
X33605Y15707D01*
X34294Y15542D01*
X34993Y15487D01*
Y14513D01*
X34294Y14458D01*
X33605Y14293D01*
X32951Y14022D01*
X32347Y13652D01*
X31808Y13192D01*
X31348Y12653D01*
X30978Y12049D01*
X30707Y11395D01*
X30542Y10706D01*
X30486Y10000D01*
X30542Y9294D01*
X30707Y8605D01*
X30978Y7951D01*
X31348Y7347D01*
X31808Y6808D01*
X32347Y6348D01*
X32951Y5978D01*
X33605Y5707D01*
X34294Y5542D01*
X34993Y5487D01*
Y0D01*
X14992D01*
Y4484D01*
X15000Y4483D01*
X15863Y4551D01*
X16705Y4753D01*
X17505Y5084D01*
X18243Y5537D01*
X18901Y6099D01*
X19463Y6757D01*
X19916Y7495D01*
X20247Y8295D01*
X20449Y9137D01*
X20500Y10000D01*
X20449Y10863D01*
X20247Y11705D01*
X19916Y12505D01*
X19463Y13243D01*
X18901Y13901D01*
X18243Y14463D01*
X18163Y14512D01*
X19235Y14514D01*
X19465Y14569D01*
X19683Y14659D01*
X19884Y14783D01*
X20064Y14936D01*
X20217Y15116D01*
X20341Y15317D01*
X20431Y15535D01*
X20486Y15765D01*
X20500Y16000D01*
X20486Y24235D01*
X20431Y24465D01*
X20341Y24683D01*
X20217Y24884D01*
X20064Y25064D01*
X19884Y25217D01*
X19683Y25341D01*
X19465Y25431D01*
X19235Y25486D01*
X19000Y25500D01*
X14992Y25493D01*
Y34507D01*
X19235Y34514D01*
X19465Y34569D01*
X19683Y34659D01*
X19884Y34783D01*
X20064Y34936D01*
X20217Y35116D01*
X20341Y35317D01*
X20431Y35535D01*
X20486Y35765D01*
X20500Y36000D01*
X20486Y44235D01*
X20431Y44465D01*
X20341Y44683D01*
X20217Y44884D01*
X20064Y45064D01*
X19884Y45217D01*
X19683Y45341D01*
X19465Y45431D01*
X19235Y45486D01*
X19000Y45500D01*
X18181Y45499D01*
X18243Y45537D01*
X18901Y46099D01*
X19463Y46757D01*
X19916Y47495D01*
X20247Y48295D01*
X20449Y49137D01*
X20500Y50000D01*
X20449Y50863D01*
X20247Y51705D01*
X19916Y52505D01*
X19463Y53243D01*
X18901Y53901D01*
X18243Y54463D01*
X17505Y54916D01*
X16705Y55247D01*
X15863Y55449D01*
X15000Y55517D01*
X14992Y55516D01*
Y65507D01*
X18235Y65514D01*
X18465Y65569D01*
X18683Y65659D01*
X18884Y65783D01*
X19064Y65936D01*
X19217Y66116D01*
X19341Y66317D01*
X19431Y66535D01*
X19486Y66765D01*
X19500Y67000D01*
X19486Y73235D01*
X19431Y73465D01*
X19341Y73683D01*
X19217Y73884D01*
X19064Y74064D01*
X18884Y74217D01*
X18683Y74341D01*
X18465Y74431D01*
X18235Y74486D01*
X18000Y74500D01*
X14992Y74493D01*
Y75487D01*
X15000Y75486D01*
X15706Y75542D01*
X16395Y75707D01*
X17049Y75978D01*
X17653Y76348D01*
X18192Y76808D01*
X18652Y77347D01*
X19022Y77951D01*
X19293Y78605D01*
X19458Y79294D01*
X19500Y80000D01*
X19458Y80706D01*
X19293Y81395D01*
X19022Y82049D01*
X18652Y82653D01*
X18192Y83192D01*
X17653Y83652D01*
X17049Y84022D01*
X16395Y84293D01*
X15706Y84458D01*
X15000Y84514D01*
X14992Y84513D01*
Y85487D01*
X15000Y85486D01*
X15706Y85542D01*
X16395Y85707D01*
X17049Y85978D01*
X17653Y86348D01*
X18192Y86808D01*
X18652Y87347D01*
X19022Y87951D01*
X19293Y88605D01*
X19458Y89294D01*
X19500Y90000D01*
X19458Y90706D01*
X19293Y91395D01*
X19022Y92049D01*
X18652Y92653D01*
X18192Y93192D01*
X17653Y93652D01*
X17049Y94022D01*
X16395Y94293D01*
X15706Y94458D01*
X15000Y94514D01*
X14992Y94513D01*
Y95487D01*
X15000Y95486D01*
X15706Y95542D01*
X16395Y95707D01*
X17049Y95978D01*
X17653Y96348D01*
X18192Y96808D01*
X18652Y97347D01*
X19022Y97951D01*
X19293Y98605D01*
X19458Y99294D01*
X19500Y100000D01*
X19458Y100706D01*
X19293Y101395D01*
X19022Y102049D01*
X18652Y102653D01*
X18192Y103192D01*
X17653Y103652D01*
X17049Y104022D01*
X16395Y104293D01*
X15706Y104458D01*
X15000Y104514D01*
X14992Y104513D01*
Y105107D01*
X18635Y105114D01*
X18865Y105169D01*
X19083Y105259D01*
X19284Y105383D01*
X19464Y105536D01*
X19617Y105716D01*
X19741Y105917D01*
X19831Y106135D01*
X19886Y106365D01*
X19900Y106600D01*
X19886Y113635D01*
X19831Y113865D01*
X19741Y114083D01*
X19617Y114284D01*
X19464Y114464D01*
X19284Y114617D01*
X19083Y114741D01*
X18865Y114831D01*
X18635Y114886D01*
X18400Y114900D01*
X14992Y114893D01*
Y145086D01*
X15000Y145085D01*
X15769Y145145D01*
X16519Y145325D01*
X17231Y145621D01*
X17889Y146024D01*
X18476Y146524D01*
X18976Y147111D01*
X19379Y147769D01*
X19675Y148481D01*
X19855Y149231D01*
X19900Y150000D01*
X19855Y150769D01*
X19675Y151519D01*
X19379Y152231D01*
X18976Y152889D01*
X18476Y153476D01*
X17889Y153976D01*
X17231Y154379D01*
X16519Y154675D01*
X15769Y154855D01*
X15000Y154915D01*
X14992Y154914D01*
Y160000D01*
G37*
G36*
X0D02*X14992D01*
Y154914D01*
X14231Y154855D01*
X13481Y154675D01*
X12769Y154379D01*
X12111Y153976D01*
X11524Y153476D01*
X11024Y152889D01*
X10621Y152231D01*
X10325Y151519D01*
X10145Y150769D01*
X10085Y150000D01*
X10145Y149231D01*
X10325Y148481D01*
X10621Y147769D01*
X11024Y147111D01*
X11524Y146524D01*
X12111Y146024D01*
X12769Y145621D01*
X13481Y145325D01*
X14231Y145145D01*
X14992Y145086D01*
Y114893D01*
X11365Y114886D01*
X11135Y114831D01*
X10917Y114741D01*
X10716Y114617D01*
X10536Y114464D01*
X10383Y114284D01*
X10259Y114083D01*
X10169Y113865D01*
X10114Y113635D01*
X10100Y113400D01*
X10114Y106365D01*
X10169Y106135D01*
X10259Y105917D01*
X10383Y105716D01*
X10536Y105536D01*
X10716Y105383D01*
X10917Y105259D01*
X11135Y105169D01*
X11365Y105114D01*
X11600Y105100D01*
X14992Y105107D01*
Y104513D01*
X14294Y104458D01*
X13605Y104293D01*
X12951Y104022D01*
X12347Y103652D01*
X11808Y103192D01*
X11348Y102653D01*
X10978Y102049D01*
X10707Y101395D01*
X10542Y100706D01*
X10486Y100000D01*
X10542Y99294D01*
X10707Y98605D01*
X10978Y97951D01*
X11348Y97347D01*
X11808Y96808D01*
X12347Y96348D01*
X12951Y95978D01*
X13605Y95707D01*
X14294Y95542D01*
X14992Y95487D01*
Y94513D01*
X14294Y94458D01*
X13605Y94293D01*
X12951Y94022D01*
X12347Y93652D01*
X11808Y93192D01*
X11348Y92653D01*
X10978Y92049D01*
X10707Y91395D01*
X10542Y90706D01*
X10486Y90000D01*
X10542Y89294D01*
X10707Y88605D01*
X10978Y87951D01*
X11348Y87347D01*
X11808Y86808D01*
X12347Y86348D01*
X12951Y85978D01*
X13605Y85707D01*
X14294Y85542D01*
X14992Y85487D01*
Y84513D01*
X14294Y84458D01*
X13605Y84293D01*
X12951Y84022D01*
X12347Y83652D01*
X11808Y83192D01*
X11348Y82653D01*
X10978Y82049D01*
X10707Y81395D01*
X10542Y80706D01*
X10486Y80000D01*
X10542Y79294D01*
X10707Y78605D01*
X10978Y77951D01*
X11348Y77347D01*
X11808Y76808D01*
X12347Y76348D01*
X12951Y75978D01*
X13605Y75707D01*
X14294Y75542D01*
X14992Y75487D01*
Y74493D01*
X11765Y74486D01*
X11535Y74431D01*
X11317Y74341D01*
X11116Y74217D01*
X10936Y74064D01*
X10783Y73884D01*
X10659Y73683D01*
X10569Y73465D01*
X10514Y73235D01*
X10500Y73000D01*
X10514Y66765D01*
X10569Y66535D01*
X10659Y66317D01*
X10783Y66116D01*
X10936Y65936D01*
X11116Y65783D01*
X11317Y65659D01*
X11535Y65569D01*
X11765Y65514D01*
X12000Y65500D01*
X14992Y65507D01*
Y55516D01*
X14137Y55449D01*
X13295Y55247D01*
X12495Y54916D01*
X11757Y54463D01*
X11099Y53901D01*
X10537Y53243D01*
X10084Y52505D01*
X9753Y51705D01*
X9551Y50863D01*
X9483Y50000D01*
X9551Y49137D01*
X9753Y48295D01*
X10084Y47495D01*
X10537Y46757D01*
X11099Y46099D01*
X11757Y45537D01*
X11837Y45488D01*
X10765Y45486D01*
X10535Y45431D01*
X10317Y45341D01*
X10116Y45217D01*
X9936Y45064D01*
X9783Y44884D01*
X9659Y44683D01*
X9569Y44465D01*
X9514Y44235D01*
X9500Y44000D01*
X9514Y35765D01*
X9569Y35535D01*
X9659Y35317D01*
X9783Y35116D01*
X9936Y34936D01*
X10116Y34783D01*
X10317Y34659D01*
X10535Y34569D01*
X10765Y34514D01*
X11000Y34500D01*
X14992Y34507D01*
Y25493D01*
X10765Y25486D01*
X10535Y25431D01*
X10317Y25341D01*
X10116Y25217D01*
X9936Y25064D01*
X9783Y24884D01*
X9659Y24683D01*
X9569Y24465D01*
X9514Y24235D01*
X9500Y24000D01*
X9514Y15765D01*
X9569Y15535D01*
X9659Y15317D01*
X9783Y15116D01*
X9936Y14936D01*
X10116Y14783D01*
X10317Y14659D01*
X10535Y14569D01*
X10765Y14514D01*
X11000Y14500D01*
X11819Y14501D01*
X11757Y14463D01*
X11099Y13901D01*
X10537Y13243D01*
X10084Y12505D01*
X9753Y11705D01*
X9551Y10863D01*
X9483Y10000D01*
X9551Y9137D01*
X9753Y8295D01*
X10084Y7495D01*
X10537Y6757D01*
X11099Y6099D01*
X11757Y5537D01*
X12495Y5084D01*
X13295Y4753D01*
X14137Y4551D01*
X14992Y4484D01*
Y0D01*
X0D01*
Y160000D01*
G37*
M02*
