M48
INCH
T32C0.040
T31C0.028
T30C0.038
%
T31
X003500Y015000
X003500Y014000
X003500Y013000
X003500Y012000
X003500Y011000
X003500Y010000
X003500Y009000
X003500Y008000
X003500Y007000
X003500Y006000
X003500Y005000
X003500Y004000
X003500Y003000
X003500Y002000
X003500Y001000
X009500Y015000
X009500Y014000
X009500Y013000
X009500Y012000
X009500Y011000
X009500Y010000
X009500Y009000
X009500Y008000
X009500Y007000
X009500Y006000
X009500Y005000
X009500Y004000
X009500Y003000
X009500Y002000
X009500Y001000
T30
X001500Y015000
X001500Y011000
X001500Y010000
X001500Y009000
X001500Y008000
X001500Y007000
X001500Y005000
X001500Y004000
X001500Y002000
X001500Y001000
X011500Y015000
X011500Y011000
X013500Y011000
X013500Y010000
T32
X011500Y004000
X012500Y008000
X013500Y004000
M30
