G04 start of page 9 for group -3984 idx -3984 *
G04 Title: Controller, fab *
G04 Creator: pcb 4.0.2 *
G04 CreationDate: Sun May 26 22:24:23 2019 UTC *
G04 For: luigi *
G04 Format: Gerber/RS-274X *
G04 PCB-Dimensions (mil): 1480.00 1600.00 *
G04 PCB-Coordinate-Origin: lower left *
%MOIN*%
%FSLAX25Y25*%
%LNFAB*%
%ADD49C,0.0100*%
%ADD48C,0.0075*%
%ADD47C,0.0060*%
%ADD46C,0.0080*%
G54D46*X123800Y81200D02*X126200Y78800D01*
X123800D02*X126200Y81200D01*
X113800Y41200D02*X116200Y38800D01*
X113800D02*X116200Y41200D01*
X133800D02*X136200Y38800D01*
X133800D02*X136200Y41200D01*
X13800Y187450D02*X16200Y185050D01*
X13800D02*X16200Y187450D01*
G54D47*X135000Y188500D02*X136500Y185500D01*
X138000Y188500D01*
X136500Y185500D02*Y182500D01*
X139800Y185800D02*X142050D01*
X139800Y182500D02*X142800D01*
X139800Y188500D02*Y182500D01*
Y188500D02*X142800D01*
X147600D02*X148350Y187750D01*
X145350Y188500D02*X147600D01*
X144600Y187750D02*X145350Y188500D01*
X144600Y187750D02*Y186250D01*
X145350Y185500D01*
X147600D01*
X148350Y184750D01*
Y183250D01*
X147600Y182500D02*X148350Y183250D01*
X145350Y182500D02*X147600D01*
X144600Y183250D02*X145350Y182500D01*
X98000Y187750D02*X98750Y188500D01*
X100250D01*
X101000Y187750D01*
X100250Y182500D02*X101000Y183250D01*
X98750Y182500D02*X100250D01*
X98000Y183250D02*X98750Y182500D01*
Y185800D02*X100250D01*
X101000Y187750D02*Y186550D01*
Y185050D02*Y183250D01*
Y185050D02*X100250Y185800D01*
X101000Y186550D02*X100250Y185800D01*
X45000Y183250D02*X45750Y182500D01*
X45000Y187750D02*Y183250D01*
Y187750D02*X45750Y188500D01*
X47250D01*
X48000Y187750D01*
Y183250D01*
X47250Y182500D02*X48000Y183250D01*
X45750Y182500D02*X47250D01*
X45000Y184000D02*X48000Y187000D01*
X49800Y182500D02*X50550D01*
X52350Y183250D02*X53100Y182500D01*
X52350Y187750D02*Y183250D01*
Y187750D02*X53100Y188500D01*
X54600D01*
X55350Y187750D01*
Y183250D01*
X54600Y182500D02*X55350Y183250D01*
X53100Y182500D02*X54600D01*
X52350Y184000D02*X55350Y187000D01*
X57150Y184750D02*X60150Y188500D01*
X57150Y184750D02*X60900D01*
X60150Y188500D02*Y182500D01*
X62700Y183250D02*X63450Y182500D01*
X62700Y187750D02*Y183250D01*
Y187750D02*X63450Y188500D01*
X64950D01*
X65700Y187750D01*
Y183250D01*
X64950Y182500D02*X65700Y183250D01*
X63450Y182500D02*X64950D01*
X62700Y184000D02*X65700Y187000D01*
X115000Y111600D02*Y108400D01*
X113400Y110000D02*X116600D01*
X115000Y151600D02*Y148400D01*
X113400Y150000D02*X116600D01*
X15000Y111600D02*Y108400D01*
X13400Y110000D02*X16600D01*
X15000Y151600D02*Y148400D01*
X13400Y150000D02*X16600D01*
X15000Y21600D02*Y18400D01*
X13400Y20000D02*X16600D01*
X15000Y11600D02*Y8400D01*
X13400Y10000D02*X16600D01*
X135000Y101600D02*Y98400D01*
X133400Y100000D02*X136600D01*
X135000Y111600D02*Y108400D01*
X133400Y110000D02*X136600D01*
X15000Y71600D02*Y68400D01*
X13400Y70000D02*X16600D01*
X15000Y81600D02*Y78400D01*
X13400Y80000D02*X16600D01*
X15000Y91600D02*Y88400D01*
X13400Y90000D02*X16600D01*
X15000Y101600D02*Y98400D01*
X13400Y100000D02*X16600D01*
X15000Y41600D02*Y38400D01*
X13400Y40000D02*X16600D01*
X15000Y51600D02*Y48400D01*
X13400Y50000D02*X16600D01*
X15000Y202850D02*Y199650D01*
X13400Y201250D02*X16600D01*
X135000Y203500D02*X136500Y200500D01*
X138000Y203500D01*
X136500Y200500D02*Y197500D01*
X139800Y200800D02*X142050D01*
X139800Y197500D02*X142800D01*
X139800Y203500D02*Y197500D01*
Y203500D02*X142800D01*
X147600D02*X148350Y202750D01*
X145350Y203500D02*X147600D01*
X144600Y202750D02*X145350Y203500D01*
X144600Y202750D02*Y201250D01*
X145350Y200500D01*
X147600D01*
X148350Y199750D01*
Y198250D01*
X147600Y197500D02*X148350Y198250D01*
X145350Y197500D02*X147600D01*
X144600Y198250D02*X145350Y197500D01*
X98000Y202300D02*X99200Y203500D01*
Y197500D01*
X98000D02*X100250D01*
X102050Y199750D02*X105050Y203500D01*
X102050Y199750D02*X105800D01*
X105050Y203500D02*Y197500D01*
X45000Y198250D02*X45750Y197500D01*
X45000Y202750D02*Y198250D01*
Y202750D02*X45750Y203500D01*
X47250D01*
X48000Y202750D01*
Y198250D01*
X47250Y197500D02*X48000Y198250D01*
X45750Y197500D02*X47250D01*
X45000Y199000D02*X48000Y202000D01*
X49800Y197500D02*X50550D01*
X52350Y198250D02*X53100Y197500D01*
X52350Y202750D02*Y198250D01*
Y202750D02*X53100Y203500D01*
X54600D01*
X55350Y202750D01*
Y198250D01*
X54600Y197500D02*X55350Y198250D01*
X53100Y197500D02*X54600D01*
X52350Y199000D02*X55350Y202000D01*
X57150Y202750D02*X57900Y203500D01*
X59400D01*
X60150Y202750D01*
X59400Y197500D02*X60150Y198250D01*
X57900Y197500D02*X59400D01*
X57150Y198250D02*X57900Y197500D01*
Y200800D02*X59400D01*
X60150Y202750D02*Y201550D01*
Y200050D02*Y198250D01*
Y200050D02*X59400Y200800D01*
X60150Y201550D02*X59400Y200800D01*
X61950Y198250D02*X62700Y197500D01*
X61950Y199450D02*Y198250D01*
Y199450D02*X63000Y200500D01*
X63900D01*
X64950Y199450D01*
Y198250D01*
X64200Y197500D02*X64950Y198250D01*
X62700Y197500D02*X64200D01*
X61950Y201550D02*X63000Y200500D01*
X61950Y202750D02*Y201550D01*
Y202750D02*X62700Y203500D01*
X64200D01*
X64950Y202750D01*
Y201550D01*
X63900Y200500D02*X64950Y201550D01*
X35000Y150000D02*Y148400D01*
Y150000D02*X36387Y150800D01*
X35000Y150000D02*X33613Y150800D01*
X35000Y140000D02*Y138400D01*
Y140000D02*X36387Y140800D01*
X35000Y140000D02*X33613Y140800D01*
X35000Y130000D02*Y128400D01*
Y130000D02*X36387Y130800D01*
X35000Y130000D02*X33613Y130800D01*
X35000Y120000D02*Y118400D01*
Y120000D02*X36387Y120800D01*
X35000Y120000D02*X33613Y120800D01*
X35000Y110000D02*Y108400D01*
Y110000D02*X36387Y110800D01*
X35000Y110000D02*X33613Y110800D01*
X35000Y100000D02*Y98400D01*
Y100000D02*X36387Y100800D01*
X35000Y100000D02*X33613Y100800D01*
X35000Y90000D02*Y88400D01*
Y90000D02*X36387Y90800D01*
X35000Y90000D02*X33613Y90800D01*
X35000Y80000D02*Y78400D01*
Y80000D02*X36387Y80800D01*
X35000Y80000D02*X33613Y80800D01*
X35000Y70000D02*Y68400D01*
Y70000D02*X36387Y70800D01*
X35000Y70000D02*X33613Y70800D01*
X35000Y60000D02*Y58400D01*
Y60000D02*X36387Y60800D01*
X35000Y60000D02*X33613Y60800D01*
X35000Y50000D02*Y48400D01*
Y50000D02*X36387Y50800D01*
X35000Y50000D02*X33613Y50800D01*
X35000Y40000D02*Y38400D01*
Y40000D02*X36387Y40800D01*
X35000Y40000D02*X33613Y40800D01*
X35000Y30000D02*Y28400D01*
Y30000D02*X36387Y30800D01*
X35000Y30000D02*X33613Y30800D01*
X35000Y20000D02*Y18400D01*
Y20000D02*X36387Y20800D01*
X35000Y20000D02*X33613Y20800D01*
X35000Y10000D02*Y8400D01*
Y10000D02*X36387Y10800D01*
X35000Y10000D02*X33613Y10800D01*
X95000Y10000D02*Y8400D01*
Y10000D02*X96387Y10800D01*
X95000Y10000D02*X93613Y10800D01*
X95000Y20000D02*Y18400D01*
Y20000D02*X96387Y20800D01*
X95000Y20000D02*X93613Y20800D01*
X95000Y30000D02*Y28400D01*
Y30000D02*X96387Y30800D01*
X95000Y30000D02*X93613Y30800D01*
X95000Y40000D02*Y38400D01*
Y40000D02*X96387Y40800D01*
X95000Y40000D02*X93613Y40800D01*
X95000Y50000D02*Y48400D01*
Y50000D02*X96387Y50800D01*
X95000Y50000D02*X93613Y50800D01*
X95000Y60000D02*Y58400D01*
Y60000D02*X96387Y60800D01*
X95000Y60000D02*X93613Y60800D01*
X95000Y70000D02*Y68400D01*
Y70000D02*X96387Y70800D01*
X95000Y70000D02*X93613Y70800D01*
X95000Y80000D02*Y78400D01*
Y80000D02*X96387Y80800D01*
X95000Y80000D02*X93613Y80800D01*
X95000Y90000D02*Y88400D01*
Y90000D02*X96387Y90800D01*
X95000Y90000D02*X93613Y90800D01*
X95000Y100000D02*Y98400D01*
Y100000D02*X96387Y100800D01*
X95000Y100000D02*X93613Y100800D01*
X95000Y110000D02*Y108400D01*
Y110000D02*X96387Y110800D01*
X95000Y110000D02*X93613Y110800D01*
X95000Y120000D02*Y118400D01*
Y120000D02*X96387Y120800D01*
X95000Y120000D02*X93613Y120800D01*
X95000Y130000D02*Y128400D01*
Y130000D02*X96387Y130800D01*
X95000Y130000D02*X93613Y130800D01*
X95000Y140000D02*Y138400D01*
Y140000D02*X96387Y140800D01*
X95000Y140000D02*X93613Y140800D01*
X95000Y150000D02*Y148400D01*
Y150000D02*X96387Y150800D01*
X95000Y150000D02*X93613Y150800D01*
X15000Y216250D02*Y214650D01*
Y216250D02*X16387Y217050D01*
X15000Y216250D02*X13613Y217050D01*
X135000Y218500D02*X136500Y215500D01*
X138000Y218500D01*
X136500Y215500D02*Y212500D01*
X139800Y215800D02*X142050D01*
X139800Y212500D02*X142800D01*
X139800Y218500D02*Y212500D01*
Y218500D02*X142800D01*
X147600D02*X148350Y217750D01*
X145350Y218500D02*X147600D01*
X144600Y217750D02*X145350Y218500D01*
X144600Y217750D02*Y216250D01*
X145350Y215500D01*
X147600D01*
X148350Y214750D01*
Y213250D01*
X147600Y212500D02*X148350Y213250D01*
X145350Y212500D02*X147600D01*
X144600Y213250D02*X145350Y212500D01*
X98000Y217750D02*X98750Y218500D01*
X100250D01*
X101000Y217750D01*
X100250Y212500D02*X101000Y213250D01*
X98750Y212500D02*X100250D01*
X98000Y213250D02*X98750Y212500D01*
Y215800D02*X100250D01*
X101000Y217750D02*Y216550D01*
Y215050D02*Y213250D01*
Y215050D02*X100250Y215800D01*
X101000Y216550D02*X100250Y215800D01*
X102800Y213250D02*X103550Y212500D01*
X102800Y217750D02*Y213250D01*
Y217750D02*X103550Y218500D01*
X105050D01*
X105800Y217750D01*
Y213250D01*
X105050Y212500D02*X105800Y213250D01*
X103550Y212500D02*X105050D01*
X102800Y214000D02*X105800Y217000D01*
X45000Y213250D02*X45750Y212500D01*
X45000Y217750D02*Y213250D01*
Y217750D02*X45750Y218500D01*
X47250D01*
X48000Y217750D01*
Y213250D01*
X47250Y212500D02*X48000Y213250D01*
X45750Y212500D02*X47250D01*
X45000Y214000D02*X48000Y217000D01*
X49800Y212500D02*X50550D01*
X52350Y213250D02*X53100Y212500D01*
X52350Y217750D02*Y213250D01*
Y217750D02*X53100Y218500D01*
X54600D01*
X55350Y217750D01*
Y213250D01*
X54600Y212500D02*X55350Y213250D01*
X53100Y212500D02*X54600D01*
X52350Y214000D02*X55350Y217000D01*
X57150Y217750D02*X57900Y218500D01*
X60150D01*
X60900Y217750D01*
Y216250D01*
X57150Y212500D02*X60900Y216250D01*
X57150Y212500D02*X60900D01*
X62700Y213250D02*X63450Y212500D01*
X62700Y214450D02*Y213250D01*
Y214450D02*X63750Y215500D01*
X64650D01*
X65700Y214450D01*
Y213250D01*
X64950Y212500D02*X65700Y213250D01*
X63450Y212500D02*X64950D01*
X62700Y216550D02*X63750Y215500D01*
X62700Y217750D02*Y216550D01*
Y217750D02*X63450Y218500D01*
X64950D01*
X65700Y217750D01*
Y216550D01*
X64650Y215500D02*X65700Y216550D01*
X3000Y233500D02*X3750Y232750D01*
X750Y233500D02*X3000D01*
X0Y232750D02*X750Y233500D01*
X0Y232750D02*Y231250D01*
X750Y230500D01*
X3000D01*
X3750Y229750D01*
Y228250D01*
X3000Y227500D02*X3750Y228250D01*
X750Y227500D02*X3000D01*
X0Y228250D02*X750Y227500D01*
X5550Y230500D02*Y228250D01*
X6300Y227500D01*
X8550Y230500D02*Y226000D01*
X7800Y225250D02*X8550Y226000D01*
X6300Y225250D02*X7800D01*
X5550Y226000D02*X6300Y225250D01*
Y227500D02*X7800D01*
X8550Y228250D01*
X11100Y229750D02*Y227500D01*
Y229750D02*X11850Y230500D01*
X12600D01*
X13350Y229750D01*
Y227500D01*
Y229750D02*X14100Y230500D01*
X14850D01*
X15600Y229750D01*
Y227500D01*
X10350Y230500D02*X11100Y229750D01*
X17400Y233500D02*Y227500D01*
Y228250D02*X18150Y227500D01*
X19650D01*
X20400Y228250D01*
Y229750D02*Y228250D01*
X19650Y230500D02*X20400Y229750D01*
X18150Y230500D02*X19650D01*
X17400Y229750D02*X18150Y230500D01*
X22200Y229750D02*Y228250D01*
Y229750D02*X22950Y230500D01*
X24450D01*
X25200Y229750D01*
Y228250D01*
X24450Y227500D02*X25200Y228250D01*
X22950Y227500D02*X24450D01*
X22200Y228250D02*X22950Y227500D01*
X27000Y233500D02*Y228250D01*
X27750Y227500D01*
X0Y224250D02*X29250D01*
X41750Y233500D02*Y227500D01*
X43700Y233500D02*X44750Y232450D01*
Y228550D01*
X43700Y227500D02*X44750Y228550D01*
X41000Y227500D02*X43700D01*
X41000Y233500D02*X43700D01*
G54D48*X46550Y232000D02*Y231850D01*
G54D47*Y229750D02*Y227500D01*
X50300Y230500D02*X51050Y229750D01*
X48800Y230500D02*X50300D01*
X48050Y229750D02*X48800Y230500D01*
X48050Y229750D02*Y228250D01*
X48800Y227500D01*
X51050Y230500D02*Y228250D01*
X51800Y227500D01*
X48800D02*X50300D01*
X51050Y228250D01*
X54350Y229750D02*Y227500D01*
Y229750D02*X55100Y230500D01*
X55850D01*
X56600Y229750D01*
Y227500D01*
Y229750D02*X57350Y230500D01*
X58100D01*
X58850Y229750D01*
Y227500D01*
X53600Y230500D02*X54350Y229750D01*
X60650Y227500D02*X61400D01*
X65900Y228250D02*X66650Y227500D01*
X65900Y232750D02*X66650Y233500D01*
X65900Y232750D02*Y228250D01*
X68450Y233500D02*X69950D01*
X69200D02*Y227500D01*
X68450D02*X69950D01*
X72500Y229750D02*Y227500D01*
Y229750D02*X73250Y230500D01*
X74000D01*
X74750Y229750D01*
Y227500D01*
X71750Y230500D02*X72500Y229750D01*
X77300Y230500D02*X79550D01*
X76550Y229750D02*X77300Y230500D01*
X76550Y229750D02*Y228250D01*
X77300Y227500D01*
X79550D01*
X81350Y233500D02*Y227500D01*
Y229750D02*X82100Y230500D01*
X83600D01*
X84350Y229750D01*
Y227500D01*
X86150Y233500D02*X86900Y232750D01*
Y228250D01*
X86150Y227500D02*X86900Y228250D01*
X41000Y224250D02*X88700D01*
X96050Y227500D02*X98000D01*
X95000Y228550D02*X96050Y227500D01*
X95000Y232450D02*Y228550D01*
Y232450D02*X96050Y233500D01*
X98000D01*
X99800Y229750D02*Y228250D01*
Y229750D02*X100550Y230500D01*
X102050D01*
X102800Y229750D01*
Y228250D01*
X102050Y227500D02*X102800Y228250D01*
X100550Y227500D02*X102050D01*
X99800Y228250D02*X100550Y227500D01*
X104600Y230500D02*Y228250D01*
X105350Y227500D01*
X106850D01*
X107600Y228250D01*
Y230500D02*Y228250D01*
X110150Y229750D02*Y227500D01*
Y229750D02*X110900Y230500D01*
X111650D01*
X112400Y229750D01*
Y227500D01*
X109400Y230500D02*X110150Y229750D01*
X114950Y233500D02*Y228250D01*
X115700Y227500D01*
X114200Y231250D02*X115700D01*
X95000Y224250D02*X117200D01*
X130750Y233500D02*Y227500D01*
X130000Y233500D02*X133000D01*
X133750Y232750D01*
Y231250D01*
X133000Y230500D02*X133750Y231250D01*
X130750Y230500D02*X133000D01*
X135550Y233500D02*Y228250D01*
X136300Y227500D01*
X140050Y230500D02*X140800Y229750D01*
X138550Y230500D02*X140050D01*
X137800Y229750D02*X138550Y230500D01*
X137800Y229750D02*Y228250D01*
X138550Y227500D01*
X140800Y230500D02*Y228250D01*
X141550Y227500D01*
X138550D02*X140050D01*
X140800Y228250D01*
X144100Y233500D02*Y228250D01*
X144850Y227500D01*
X143350Y231250D02*X144850D01*
X147100Y227500D02*X149350D01*
X146350Y228250D02*X147100Y227500D01*
X146350Y229750D02*Y228250D01*
Y229750D02*X147100Y230500D01*
X148600D01*
X149350Y229750D01*
X146350Y229000D02*X149350D01*
Y229750D02*Y229000D01*
X154150Y233500D02*Y227500D01*
X153400D02*X154150Y228250D01*
X151900Y227500D02*X153400D01*
X151150Y228250D02*X151900Y227500D01*
X151150Y229750D02*Y228250D01*
Y229750D02*X151900Y230500D01*
X153400D01*
X154150Y229750D01*
X157450Y230500D02*Y229750D01*
Y228250D02*Y227500D01*
X155950Y232750D02*Y232000D01*
Y232750D02*X156700Y233500D01*
X158200D01*
X158950Y232750D01*
Y232000D01*
X157450Y230500D02*X158950Y232000D01*
X130000Y224250D02*X160750D01*
X0Y248500D02*X3000D01*
X1500D02*Y242500D01*
X4800Y248500D02*Y242500D01*
Y244750D02*X5550Y245500D01*
X7050D01*
X7800Y244750D01*
Y242500D01*
X10350D02*X12600D01*
X9600Y243250D02*X10350Y242500D01*
X9600Y244750D02*Y243250D01*
Y244750D02*X10350Y245500D01*
X11850D01*
X12600Y244750D01*
X9600Y244000D02*X12600D01*
Y244750D02*Y244000D01*
X15150Y244750D02*Y242500D01*
Y244750D02*X15900Y245500D01*
X17400D01*
X14400D02*X15150Y244750D01*
X19950Y242500D02*X22200D01*
X19200Y243250D02*X19950Y242500D01*
X19200Y244750D02*Y243250D01*
Y244750D02*X19950Y245500D01*
X21450D01*
X22200Y244750D01*
X19200Y244000D02*X22200D01*
Y244750D02*Y244000D01*
X28950Y245500D02*X29700Y244750D01*
X27450Y245500D02*X28950D01*
X26700Y244750D02*X27450Y245500D01*
X26700Y244750D02*Y243250D01*
X27450Y242500D01*
X29700Y245500D02*Y243250D01*
X30450Y242500D01*
X27450D02*X28950D01*
X29700Y243250D01*
X33000Y244750D02*Y242500D01*
Y244750D02*X33750Y245500D01*
X35250D01*
X32250D02*X33000Y244750D01*
X37800Y242500D02*X40050D01*
X37050Y243250D02*X37800Y242500D01*
X37050Y244750D02*Y243250D01*
Y244750D02*X37800Y245500D01*
X39300D01*
X40050Y244750D01*
X37050Y244000D02*X40050D01*
Y244750D02*Y244000D01*
X44550Y247750D02*X45300Y248500D01*
X46800D01*
X47550Y247750D01*
X46800Y242500D02*X47550Y243250D01*
X45300Y242500D02*X46800D01*
X44550Y243250D02*X45300Y242500D01*
Y245800D02*X46800D01*
X47550Y247750D02*Y246550D01*
Y245050D02*Y243250D01*
Y245050D02*X46800Y245800D01*
X47550Y246550D02*X46800Y245800D01*
X55050Y248500D02*Y242500D01*
X54300D02*X55050Y243250D01*
X52800Y242500D02*X54300D01*
X52050Y243250D02*X52800Y242500D01*
X52050Y244750D02*Y243250D01*
Y244750D02*X52800Y245500D01*
X54300D01*
X55050Y244750D01*
G54D48*X56850Y247000D02*Y246850D01*
G54D47*Y244750D02*Y242500D01*
X59100Y247750D02*Y242500D01*
Y247750D02*X59850Y248500D01*
X60600D01*
X58350Y245500D02*X59850D01*
X62850Y247750D02*Y242500D01*
Y247750D02*X63600Y248500D01*
X64350D01*
X62100Y245500D02*X63600D01*
X66600Y242500D02*X68850D01*
X65850Y243250D02*X66600Y242500D01*
X65850Y244750D02*Y243250D01*
Y244750D02*X66600Y245500D01*
X68100D01*
X68850Y244750D01*
X65850Y244000D02*X68850D01*
Y244750D02*Y244000D01*
X71400Y244750D02*Y242500D01*
Y244750D02*X72150Y245500D01*
X73650D01*
X70650D02*X71400Y244750D01*
X76200Y242500D02*X78450D01*
X75450Y243250D02*X76200Y242500D01*
X75450Y244750D02*Y243250D01*
Y244750D02*X76200Y245500D01*
X77700D01*
X78450Y244750D01*
X75450Y244000D02*X78450D01*
Y244750D02*Y244000D01*
X81000Y244750D02*Y242500D01*
Y244750D02*X81750Y245500D01*
X82500D01*
X83250Y244750D01*
Y242500D01*
X80250Y245500D02*X81000Y244750D01*
X85800Y248500D02*Y243250D01*
X86550Y242500D01*
X85050Y246250D02*X86550D01*
X93750Y248500D02*Y242500D01*
X93000D02*X93750Y243250D01*
X91500Y242500D02*X93000D01*
X90750Y243250D02*X91500Y242500D01*
X90750Y244750D02*Y243250D01*
Y244750D02*X91500Y245500D01*
X93000D01*
X93750Y244750D01*
X96300D02*Y242500D01*
Y244750D02*X97050Y245500D01*
X98550D01*
X95550D02*X96300Y244750D01*
G54D48*X100350Y247000D02*Y246850D01*
G54D47*Y244750D02*Y242500D01*
X101850Y248500D02*Y243250D01*
X102600Y242500D01*
X104100Y248500D02*Y243250D01*
X104850Y242500D01*
X109800D02*X112050D01*
X112800Y243250D01*
X112050Y244000D02*X112800Y243250D01*
X109800Y244000D02*X112050D01*
X109050Y244750D02*X109800Y244000D01*
X109050Y244750D02*X109800Y245500D01*
X112050D01*
X112800Y244750D01*
X109050Y243250D02*X109800Y242500D01*
G54D48*X114600Y247000D02*Y246850D01*
G54D47*Y244750D02*Y242500D01*
X116100Y245500D02*X119100D01*
X116100Y242500D02*X119100Y245500D01*
X116100Y242500D02*X119100D01*
X121650D02*X123900D01*
X120900Y243250D02*X121650Y242500D01*
X120900Y244750D02*Y243250D01*
Y244750D02*X121650Y245500D01*
X123150D01*
X123900Y244750D01*
X120900Y244000D02*X123900D01*
Y244750D02*Y244000D01*
X126450Y242500D02*X128700D01*
X129450Y243250D01*
X128700Y244000D02*X129450Y243250D01*
X126450Y244000D02*X128700D01*
X125700Y244750D02*X126450Y244000D01*
X125700Y244750D02*X126450Y245500D01*
X128700D01*
X129450Y244750D01*
X125700Y243250D02*X126450Y242500D01*
X133950Y245500D02*Y243250D01*
X134700Y242500D01*
X136200D01*
X136950Y243250D01*
Y245500D02*Y243250D01*
X139500Y242500D02*X141750D01*
X142500Y243250D01*
X141750Y244000D02*X142500Y243250D01*
X139500Y244000D02*X141750D01*
X138750Y244750D02*X139500Y244000D01*
X138750Y244750D02*X139500Y245500D01*
X141750D01*
X142500Y244750D01*
X138750Y243250D02*X139500Y242500D01*
X145050D02*X147300D01*
X144300Y243250D02*X145050Y242500D01*
X144300Y244750D02*Y243250D01*
Y244750D02*X145050Y245500D01*
X146550D01*
X147300Y244750D01*
X144300Y244000D02*X147300D01*
Y244750D02*Y244000D01*
X152100Y248500D02*Y242500D01*
X151350D02*X152100Y243250D01*
X149850Y242500D02*X151350D01*
X149100Y243250D02*X149850Y242500D01*
X149100Y244750D02*Y243250D01*
Y244750D02*X149850Y245500D01*
X151350D01*
X152100Y244750D01*
G54D48*X156600Y247000D02*Y246850D01*
G54D47*Y244750D02*Y242500D01*
X158850Y244750D02*Y242500D01*
Y244750D02*X159600Y245500D01*
X160350D01*
X161100Y244750D01*
Y242500D01*
X158100Y245500D02*X158850Y244750D01*
X166350Y248500D02*Y243250D01*
X167100Y242500D01*
X165600Y246250D02*X167100D01*
X168600Y248500D02*Y242500D01*
Y244750D02*X169350Y245500D01*
X170850D01*
X171600Y244750D01*
Y242500D01*
G54D48*X173400Y247000D02*Y246850D01*
G54D47*Y244750D02*Y242500D01*
X175650D02*X177900D01*
X178650Y243250D01*
X177900Y244000D02*X178650Y243250D01*
X175650Y244000D02*X177900D01*
X174900Y244750D02*X175650Y244000D01*
X174900Y244750D02*X175650Y245500D01*
X177900D01*
X178650Y244750D01*
X174900Y243250D02*X175650Y242500D01*
X183150Y248500D02*Y243250D01*
X183900Y242500D01*
X187650Y245500D02*X188400Y244750D01*
X186150Y245500D02*X187650D01*
X185400Y244750D02*X186150Y245500D01*
X185400Y244750D02*Y243250D01*
X186150Y242500D01*
X188400Y245500D02*Y243250D01*
X189150Y242500D01*
X186150D02*X187650D01*
X188400Y243250D01*
X190950Y245500D02*Y243250D01*
X191700Y242500D01*
X193950Y245500D02*Y241000D01*
X193200Y240250D02*X193950Y241000D01*
X191700Y240250D02*X193200D01*
X190950Y241000D02*X191700Y240250D01*
Y242500D02*X193200D01*
X193950Y243250D01*
X195750Y244750D02*Y243250D01*
Y244750D02*X196500Y245500D01*
X198000D01*
X198750Y244750D01*
Y243250D01*
X198000Y242500D02*X198750Y243250D01*
X196500Y242500D02*X198000D01*
X195750Y243250D02*X196500Y242500D01*
X200550Y245500D02*Y243250D01*
X201300Y242500D01*
X202800D01*
X203550Y243250D01*
Y245500D02*Y243250D01*
X206100Y248500D02*Y243250D01*
X206850Y242500D01*
X205350Y246250D02*X206850D01*
X208350Y241000D02*X209850Y242500D01*
X214350Y244750D02*X217350Y248500D01*
X214350Y244750D02*X218100D01*
X217350Y248500D02*Y242500D01*
X220650D02*X223650Y248500D01*
X219900D02*X223650D01*
X228150D02*Y242500D01*
Y244750D02*X228900Y245500D01*
X230400D01*
X231150Y244750D01*
Y242500D01*
X232950Y244750D02*Y243250D01*
Y244750D02*X233700Y245500D01*
X235200D01*
X235950Y244750D01*
Y243250D01*
X235200Y242500D02*X235950Y243250D01*
X233700Y242500D02*X235200D01*
X232950Y243250D02*X233700Y242500D01*
X237750Y248500D02*Y243250D01*
X238500Y242500D01*
X240750D02*X243000D01*
X240000Y243250D02*X240750Y242500D01*
X240000Y244750D02*Y243250D01*
Y244750D02*X240750Y245500D01*
X242250D01*
X243000Y244750D01*
X240000Y244000D02*X243000D01*
Y244750D02*Y244000D01*
X245550Y242500D02*X247800D01*
X248550Y243250D01*
X247800Y244000D02*X248550Y243250D01*
X245550Y244000D02*X247800D01*
X244800Y244750D02*X245550Y244000D01*
X244800Y244750D02*X245550Y245500D01*
X247800D01*
X248550Y244750D01*
X244800Y243250D02*X245550Y242500D01*
X253800Y248500D02*Y243250D01*
X254550Y242500D01*
X253050Y246250D02*X254550D01*
X256050Y244750D02*Y243250D01*
Y244750D02*X256800Y245500D01*
X258300D01*
X259050Y244750D01*
Y243250D01*
X258300Y242500D02*X259050Y243250D01*
X256800Y242500D02*X258300D01*
X256050Y243250D02*X256800Y242500D01*
X261600Y248500D02*Y243250D01*
X262350Y242500D01*
X260850Y246250D02*X262350D01*
X266100Y245500D02*X266850Y244750D01*
X264600Y245500D02*X266100D01*
X263850Y244750D02*X264600Y245500D01*
X263850Y244750D02*Y243250D01*
X264600Y242500D01*
X266850Y245500D02*Y243250D01*
X267600Y242500D01*
X264600D02*X266100D01*
X266850Y243250D01*
X269400Y248500D02*Y243250D01*
X270150Y242500D01*
G54D49*X0Y160000D02*X148000D01*
X0D02*Y0D01*
X148000Y160000D02*Y0D01*
X0D02*X148000D01*
G54D47*X200000Y173500D02*Y167500D01*
Y173500D02*X202250Y170500D01*
X204500Y173500D01*
Y167500D01*
X208550Y170500D02*X209300Y169750D01*
X207050Y170500D02*X208550D01*
X206300Y169750D02*X207050Y170500D01*
X206300Y169750D02*Y168250D01*
X207050Y167500D01*
X209300Y170500D02*Y168250D01*
X210050Y167500D01*
X207050D02*X208550D01*
X209300Y168250D01*
X211850Y170500D02*X214850Y167500D01*
X211850D02*X214850Y170500D01*
G54D48*X216650Y172000D02*Y171850D01*
G54D47*Y169750D02*Y167500D01*
X218900Y169750D02*Y167500D01*
Y169750D02*X219650Y170500D01*
X220400D01*
X221150Y169750D01*
Y167500D01*
Y169750D02*X221900Y170500D01*
X222650D01*
X223400Y169750D01*
Y167500D01*
X218150Y170500D02*X218900Y169750D01*
X225200Y170500D02*Y168250D01*
X225950Y167500D01*
X227450D01*
X228200Y168250D01*
Y170500D02*Y168250D01*
X230750Y169750D02*Y167500D01*
Y169750D02*X231500Y170500D01*
X232250D01*
X233000Y169750D01*
Y167500D01*
Y169750D02*X233750Y170500D01*
X234500D01*
X235250Y169750D01*
Y167500D01*
X230000Y170500D02*X230750Y169750D01*
X240500Y173500D02*Y167500D01*
X242450Y173500D02*X243500Y172450D01*
Y168550D01*
X242450Y167500D02*X243500Y168550D01*
X239750Y167500D02*X242450D01*
X239750Y173500D02*X242450D01*
G54D48*X245300Y172000D02*Y171850D01*
G54D47*Y169750D02*Y167500D01*
X247550Y169750D02*Y167500D01*
Y169750D02*X248300Y170500D01*
X249050D01*
X249800Y169750D01*
Y167500D01*
Y169750D02*X250550Y170500D01*
X251300D01*
X252050Y169750D01*
Y167500D01*
X246800Y170500D02*X247550Y169750D01*
X254600Y167500D02*X256850D01*
X253850Y168250D02*X254600Y167500D01*
X253850Y169750D02*Y168250D01*
Y169750D02*X254600Y170500D01*
X256100D01*
X256850Y169750D01*
X253850Y169000D02*X256850D01*
Y169750D02*Y169000D01*
X259400Y169750D02*Y167500D01*
Y169750D02*X260150Y170500D01*
X260900D01*
X261650Y169750D01*
Y167500D01*
X258650Y170500D02*X259400Y169750D01*
X264200Y167500D02*X266450D01*
X267200Y168250D01*
X266450Y169000D02*X267200Y168250D01*
X264200Y169000D02*X266450D01*
X263450Y169750D02*X264200Y169000D01*
X263450Y169750D02*X264200Y170500D01*
X266450D01*
X267200Y169750D01*
X263450Y168250D02*X264200Y167500D01*
G54D48*X269000Y172000D02*Y171850D01*
G54D47*Y169750D02*Y167500D01*
X270500Y169750D02*Y168250D01*
Y169750D02*X271250Y170500D01*
X272750D01*
X273500Y169750D01*
Y168250D01*
X272750Y167500D02*X273500Y168250D01*
X271250Y167500D02*X272750D01*
X270500Y168250D02*X271250Y167500D01*
X276050Y169750D02*Y167500D01*
Y169750D02*X276800Y170500D01*
X277550D01*
X278300Y169750D01*
Y167500D01*
X275300Y170500D02*X276050Y169750D01*
X280850Y167500D02*X283100D01*
X283850Y168250D01*
X283100Y169000D02*X283850Y168250D01*
X280850Y169000D02*X283100D01*
X280100Y169750D02*X280850Y169000D01*
X280100Y169750D02*X280850Y170500D01*
X283100D01*
X283850Y169750D01*
X280100Y168250D02*X280850Y167500D01*
X285650Y171250D02*X286400D01*
X285650Y169750D02*X286400D01*
X290900Y172300D02*X292100Y173500D01*
Y167500D01*
X290900D02*X293150D01*
X294950Y169750D02*X297950Y173500D01*
X294950Y169750D02*X298700D01*
X297950Y173500D02*Y167500D01*
X300500Y168250D02*X301250Y167500D01*
X300500Y169450D02*Y168250D01*
Y169450D02*X301550Y170500D01*
X302450D01*
X303500Y169450D01*
Y168250D01*
X302750Y167500D02*X303500Y168250D01*
X301250Y167500D02*X302750D01*
X300500Y171550D02*X301550Y170500D01*
X300500Y172750D02*Y171550D01*
Y172750D02*X301250Y173500D01*
X302750D01*
X303500Y172750D01*
Y171550D01*
X302450Y170500D02*X303500Y171550D01*
X305300Y168250D02*X306050Y167500D01*
X305300Y172750D02*Y168250D01*
Y172750D02*X306050Y173500D01*
X307550D01*
X308300Y172750D01*
Y168250D01*
X307550Y167500D02*X308300Y168250D01*
X306050Y167500D02*X307550D01*
X305300Y169000D02*X308300Y172000D01*
X310100Y167500D02*X310850D01*
X312650Y168250D02*X313400Y167500D01*
X312650Y172750D02*Y168250D01*
Y172750D02*X313400Y173500D01*
X314900D01*
X315650Y172750D01*
Y168250D01*
X314900Y167500D02*X315650Y168250D01*
X313400Y167500D02*X314900D01*
X312650Y169000D02*X315650Y172000D01*
X317450Y168250D02*X318200Y167500D01*
X317450Y172750D02*Y168250D01*
Y172750D02*X318200Y173500D01*
X319700D01*
X320450Y172750D01*
Y168250D01*
X319700Y167500D02*X320450Y168250D01*
X318200Y167500D02*X319700D01*
X317450Y169000D02*X320450Y172000D01*
X322250Y168250D02*X323000Y167500D01*
X322250Y172750D02*Y168250D01*
Y172750D02*X323000Y173500D01*
X324500D01*
X325250Y172750D01*
Y168250D01*
X324500Y167500D02*X325250Y168250D01*
X323000Y167500D02*X324500D01*
X322250Y169000D02*X325250Y172000D01*
X327050Y168250D02*X327800Y167500D01*
X327050Y172750D02*Y168250D01*
Y172750D02*X327800Y173500D01*
X329300D01*
X330050Y172750D01*
Y168250D01*
X329300Y167500D02*X330050Y168250D01*
X327800Y167500D02*X329300D01*
X327050Y169000D02*X330050Y172000D01*
X331850Y168250D02*X332600Y167500D01*
X331850Y172750D02*Y168250D01*
Y172750D02*X332600Y173500D01*
X334100D01*
X334850Y172750D01*
Y168250D01*
X334100Y167500D02*X334850Y168250D01*
X332600Y167500D02*X334100D01*
X331850Y169000D02*X334850Y172000D01*
X336650Y168250D02*X337400Y167500D01*
X336650Y172750D02*Y168250D01*
Y172750D02*X337400Y173500D01*
X338900D01*
X339650Y172750D01*
Y168250D01*
X338900Y167500D02*X339650Y168250D01*
X337400Y167500D02*X338900D01*
X336650Y169000D02*X339650Y172000D01*
X344900Y169750D02*Y167500D01*
Y169750D02*X345650Y170500D01*
X346400D01*
X347150Y169750D01*
Y167500D01*
Y169750D02*X347900Y170500D01*
X348650D01*
X349400Y169750D01*
Y167500D01*
X344150Y170500D02*X344900Y169750D01*
G54D48*X351200Y172000D02*Y171850D01*
G54D47*Y169750D02*Y167500D01*
X352700Y173500D02*Y168250D01*
X353450Y167500D01*
X355700D02*X357950D01*
X358700Y168250D01*
X357950Y169000D02*X358700Y168250D01*
X355700Y169000D02*X357950D01*
X354950Y169750D02*X355700Y169000D01*
X354950Y169750D02*X355700Y170500D01*
X357950D01*
X358700Y169750D01*
X354950Y168250D02*X355700Y167500D01*
X363200Y170500D02*Y168250D01*
X363950Y167500D01*
X364700D01*
X365450Y168250D01*
Y170500D02*Y168250D01*
X366200Y167500D01*
X366950D01*
X367700Y168250D01*
Y170500D02*Y168250D01*
G54D48*X369500Y172000D02*Y171850D01*
G54D47*Y169750D02*Y167500D01*
X374000Y173500D02*Y167500D01*
X373250D02*X374000Y168250D01*
X371750Y167500D02*X373250D01*
X371000Y168250D02*X371750Y167500D01*
X371000Y169750D02*Y168250D01*
Y169750D02*X371750Y170500D01*
X373250D01*
X374000Y169750D01*
X376550Y167500D02*X378800D01*
X375800Y168250D02*X376550Y167500D01*
X375800Y169750D02*Y168250D01*
Y169750D02*X376550Y170500D01*
X378050D01*
X378800Y169750D01*
X375800Y169000D02*X378800D01*
Y169750D02*Y169000D01*
X380600Y166000D02*X382100Y167500D01*
X386600Y172300D02*X387800Y173500D01*
Y167500D01*
X386600D02*X388850D01*
X392900Y173500D02*X393650Y172750D01*
X391400Y173500D02*X392900D01*
X390650Y172750D02*X391400Y173500D01*
X390650Y172750D02*Y168250D01*
X391400Y167500D01*
X392900Y170800D02*X393650Y170050D01*
X390650Y170800D02*X392900D01*
X391400Y167500D02*X392900D01*
X393650Y168250D01*
Y170050D02*Y168250D01*
X395450D02*X396200Y167500D01*
X395450Y172750D02*Y168250D01*
Y172750D02*X396200Y173500D01*
X397700D01*
X398450Y172750D01*
Y168250D01*
X397700Y167500D02*X398450Y168250D01*
X396200Y167500D02*X397700D01*
X395450Y169000D02*X398450Y172000D01*
X400250Y168250D02*X401000Y167500D01*
X400250Y172750D02*Y168250D01*
Y172750D02*X401000Y173500D01*
X402500D01*
X403250Y172750D01*
Y168250D01*
X402500Y167500D02*X403250Y168250D01*
X401000Y167500D02*X402500D01*
X400250Y169000D02*X403250Y172000D01*
X405050Y167500D02*X405800D01*
X407600Y168250D02*X408350Y167500D01*
X407600Y172750D02*Y168250D01*
Y172750D02*X408350Y173500D01*
X409850D01*
X410600Y172750D01*
Y168250D01*
X409850Y167500D02*X410600Y168250D01*
X408350Y167500D02*X409850D01*
X407600Y169000D02*X410600Y172000D01*
X412400Y168250D02*X413150Y167500D01*
X412400Y172750D02*Y168250D01*
Y172750D02*X413150Y173500D01*
X414650D01*
X415400Y172750D01*
Y168250D01*
X414650Y167500D02*X415400Y168250D01*
X413150Y167500D02*X414650D01*
X412400Y169000D02*X415400Y172000D01*
X417200Y168250D02*X417950Y167500D01*
X417200Y172750D02*Y168250D01*
Y172750D02*X417950Y173500D01*
X419450D01*
X420200Y172750D01*
Y168250D01*
X419450Y167500D02*X420200Y168250D01*
X417950Y167500D02*X419450D01*
X417200Y169000D02*X420200Y172000D01*
X422000Y168250D02*X422750Y167500D01*
X422000Y172750D02*Y168250D01*
Y172750D02*X422750Y173500D01*
X424250D01*
X425000Y172750D01*
Y168250D01*
X424250Y167500D02*X425000Y168250D01*
X422750Y167500D02*X424250D01*
X422000Y169000D02*X425000Y172000D01*
X426800Y168250D02*X427550Y167500D01*
X426800Y172750D02*Y168250D01*
Y172750D02*X427550Y173500D01*
X429050D01*
X429800Y172750D01*
Y168250D01*
X429050Y167500D02*X429800Y168250D01*
X427550Y167500D02*X429050D01*
X426800Y169000D02*X429800Y172000D01*
X431600Y168250D02*X432350Y167500D01*
X431600Y172750D02*Y168250D01*
Y172750D02*X432350Y173500D01*
X433850D01*
X434600Y172750D01*
Y168250D01*
X433850Y167500D02*X434600Y168250D01*
X432350Y167500D02*X433850D01*
X431600Y169000D02*X434600Y172000D01*
X439850Y169750D02*Y167500D01*
Y169750D02*X440600Y170500D01*
X441350D01*
X442100Y169750D01*
Y167500D01*
Y169750D02*X442850Y170500D01*
X443600D01*
X444350Y169750D01*
Y167500D01*
X439100Y170500D02*X439850Y169750D01*
G54D48*X446150Y172000D02*Y171850D01*
G54D47*Y169750D02*Y167500D01*
X447650Y173500D02*Y168250D01*
X448400Y167500D01*
X450650D02*X452900D01*
X453650Y168250D01*
X452900Y169000D02*X453650Y168250D01*
X450650Y169000D02*X452900D01*
X449900Y169750D02*X450650Y169000D01*
X449900Y169750D02*X450650Y170500D01*
X452900D01*
X453650Y169750D01*
X449900Y168250D02*X450650Y167500D01*
X458150Y173500D02*Y167500D01*
Y169750D02*X458900Y170500D01*
X460400D01*
X461150Y169750D01*
Y167500D01*
G54D48*X462950Y172000D02*Y171850D01*
G54D47*Y169750D02*Y167500D01*
X466700Y170500D02*X467450Y169750D01*
X465200Y170500D02*X466700D01*
X464450Y169750D02*X465200Y170500D01*
X464450Y169750D02*Y168250D01*
X465200Y167500D01*
X466700D01*
X467450Y168250D01*
X464450Y166000D02*X465200Y165250D01*
X466700D01*
X467450Y166000D01*
Y170500D02*Y166000D01*
X469250Y173500D02*Y167500D01*
Y169750D02*X470000Y170500D01*
X471500D01*
X472250Y169750D01*
Y167500D01*
X0Y-9500D02*X3000D01*
X3750Y-8750D01*
Y-6950D02*Y-8750D01*
X3000Y-6200D02*X3750Y-6950D01*
X750Y-6200D02*X3000D01*
X750Y-3500D02*Y-9500D01*
X0Y-3500D02*X3000D01*
X3750Y-4250D01*
Y-5450D01*
X3000Y-6200D02*X3750Y-5450D01*
X5550Y-7250D02*Y-8750D01*
Y-7250D02*X6300Y-6500D01*
X7800D01*
X8550Y-7250D01*
Y-8750D01*
X7800Y-9500D02*X8550Y-8750D01*
X6300Y-9500D02*X7800D01*
X5550Y-8750D02*X6300Y-9500D01*
X12600Y-6500D02*X13350Y-7250D01*
X11100Y-6500D02*X12600D01*
X10350Y-7250D02*X11100Y-6500D01*
X10350Y-7250D02*Y-8750D01*
X11100Y-9500D01*
X13350Y-6500D02*Y-8750D01*
X14100Y-9500D01*
X11100D02*X12600D01*
X13350Y-8750D01*
X16650Y-7250D02*Y-9500D01*
Y-7250D02*X17400Y-6500D01*
X18900D01*
X15900D02*X16650Y-7250D01*
X23700Y-3500D02*Y-9500D01*
X22950D02*X23700Y-8750D01*
X21450Y-9500D02*X22950D01*
X20700Y-8750D02*X21450Y-9500D01*
X20700Y-7250D02*Y-8750D01*
Y-7250D02*X21450Y-6500D01*
X22950D01*
X23700Y-7250D01*
X28200D02*Y-8750D01*
Y-7250D02*X28950Y-6500D01*
X30450D01*
X31200Y-7250D01*
Y-8750D01*
X30450Y-9500D02*X31200Y-8750D01*
X28950Y-9500D02*X30450D01*
X28200Y-8750D02*X28950Y-9500D01*
X33000Y-6500D02*Y-8750D01*
X33750Y-9500D01*
X35250D01*
X36000Y-8750D01*
Y-6500D02*Y-8750D01*
X38550Y-3500D02*Y-8750D01*
X39300Y-9500D01*
X37800Y-5750D02*X39300D01*
X40800Y-3500D02*Y-8750D01*
X41550Y-9500D01*
G54D48*X43050Y-5000D02*Y-5150D01*
G54D47*Y-7250D02*Y-9500D01*
X45300Y-7250D02*Y-9500D01*
Y-7250D02*X46050Y-6500D01*
X46800D01*
X47550Y-7250D01*
Y-9500D01*
X44550Y-6500D02*X45300Y-7250D01*
X50100Y-9500D02*X52350D01*
X49350Y-8750D02*X50100Y-9500D01*
X49350Y-7250D02*Y-8750D01*
Y-7250D02*X50100Y-6500D01*
X51600D01*
X52350Y-7250D01*
X49350Y-8000D02*X52350D01*
Y-7250D02*Y-8000D01*
G54D48*X56850Y-5000D02*Y-5150D01*
G54D47*Y-7250D02*Y-9500D01*
X59100D02*X61350D01*
X62100Y-8750D01*
X61350Y-8000D02*X62100Y-8750D01*
X59100Y-8000D02*X61350D01*
X58350Y-7250D02*X59100Y-8000D01*
X58350Y-7250D02*X59100Y-6500D01*
X61350D01*
X62100Y-7250D01*
X58350Y-8750D02*X59100Y-9500D01*
X67350Y-3500D02*Y-8750D01*
X68100Y-9500D01*
X66600Y-5750D02*X68100D01*
X69600Y-3500D02*Y-9500D01*
Y-7250D02*X70350Y-6500D01*
X71850D01*
X72600Y-7250D01*
Y-9500D01*
X75150D02*X77400D01*
X74400Y-8750D02*X75150Y-9500D01*
X74400Y-7250D02*Y-8750D01*
Y-7250D02*X75150Y-6500D01*
X76650D01*
X77400Y-7250D01*
X74400Y-8000D02*X77400D01*
Y-7250D02*Y-8000D01*
X82650Y-6500D02*X84900D01*
X81900Y-7250D02*X82650Y-6500D01*
X81900Y-7250D02*Y-8750D01*
X82650Y-9500D01*
X84900D01*
X87450D02*X89700D01*
X86700Y-8750D02*X87450Y-9500D01*
X86700Y-7250D02*Y-8750D01*
Y-7250D02*X87450Y-6500D01*
X88950D01*
X89700Y-7250D01*
X86700Y-8000D02*X89700D01*
Y-7250D02*Y-8000D01*
X92250Y-7250D02*Y-9500D01*
Y-7250D02*X93000Y-6500D01*
X93750D01*
X94500Y-7250D01*
Y-9500D01*
X91500Y-6500D02*X92250Y-7250D01*
X97050Y-3500D02*Y-8750D01*
X97800Y-9500D01*
X96300Y-5750D02*X97800D01*
X100050Y-9500D02*X102300D01*
X99300Y-8750D02*X100050Y-9500D01*
X99300Y-7250D02*Y-8750D01*
Y-7250D02*X100050Y-6500D01*
X101550D01*
X102300Y-7250D01*
X99300Y-8000D02*X102300D01*
Y-7250D02*Y-8000D01*
X104850Y-7250D02*Y-9500D01*
Y-7250D02*X105600Y-6500D01*
X107100D01*
X104100D02*X104850Y-7250D01*
X108900Y-3500D02*Y-8750D01*
X109650Y-9500D01*
G54D48*X111150Y-5000D02*Y-5150D01*
G54D47*Y-7250D02*Y-9500D01*
X113400Y-7250D02*Y-9500D01*
Y-7250D02*X114150Y-6500D01*
X114900D01*
X115650Y-7250D01*
Y-9500D01*
X112650Y-6500D02*X113400Y-7250D01*
X118200Y-9500D02*X120450D01*
X117450Y-8750D02*X118200Y-9500D01*
X117450Y-7250D02*Y-8750D01*
Y-7250D02*X118200Y-6500D01*
X119700D01*
X120450Y-7250D01*
X117450Y-8000D02*X120450D01*
Y-7250D02*Y-8000D01*
X124950Y-7250D02*Y-8750D01*
Y-7250D02*X125700Y-6500D01*
X127200D01*
X127950Y-7250D01*
Y-8750D01*
X127200Y-9500D02*X127950Y-8750D01*
X125700Y-9500D02*X127200D01*
X124950Y-8750D02*X125700Y-9500D01*
X130500Y-4250D02*Y-9500D01*
Y-4250D02*X131250Y-3500D01*
X132000D01*
X129750Y-6500D02*X131250D01*
X136950Y-3500D02*Y-8750D01*
X137700Y-9500D01*
X136200Y-5750D02*X137700D01*
X139200Y-3500D02*Y-9500D01*
Y-7250D02*X139950Y-6500D01*
X141450D01*
X142200Y-7250D01*
Y-9500D01*
G54D48*X144000Y-5000D02*Y-5150D01*
G54D47*Y-7250D02*Y-9500D01*
X146250D02*X148500D01*
X149250Y-8750D01*
X148500Y-8000D02*X149250Y-8750D01*
X146250Y-8000D02*X148500D01*
X145500Y-7250D02*X146250Y-8000D01*
X145500Y-7250D02*X146250Y-6500D01*
X148500D01*
X149250Y-7250D01*
X145500Y-8750D02*X146250Y-9500D01*
X153750Y-8750D02*X154500Y-9500D01*
X153750Y-7550D02*Y-8750D01*
Y-7550D02*X154800Y-6500D01*
X155700D01*
X156750Y-7550D01*
Y-8750D01*
X156000Y-9500D02*X156750Y-8750D01*
X154500Y-9500D02*X156000D01*
X153750Y-5450D02*X154800Y-6500D01*
X153750Y-4250D02*Y-5450D01*
Y-4250D02*X154500Y-3500D01*
X156000D01*
X156750Y-4250D01*
Y-5450D01*
X155700Y-6500D02*X156750Y-5450D01*
X158550Y-9500D02*X159300D01*
X161100Y-8750D02*X161850Y-9500D01*
X161100Y-4250D02*Y-8750D01*
Y-4250D02*X161850Y-3500D01*
X163350D01*
X164100Y-4250D01*
Y-8750D01*
X163350Y-9500D02*X164100Y-8750D01*
X161850Y-9500D02*X163350D01*
X161100Y-8000D02*X164100Y-5000D01*
X165900Y-8750D02*X166650Y-9500D01*
X165900Y-4250D02*Y-8750D01*
Y-4250D02*X166650Y-3500D01*
X168150D01*
X168900Y-4250D01*
Y-8750D01*
X168150Y-9500D02*X168900Y-8750D01*
X166650Y-9500D02*X168150D01*
X165900Y-8000D02*X168900Y-5000D01*
X170700Y-8750D02*X171450Y-9500D01*
X170700Y-4250D02*Y-8750D01*
Y-4250D02*X171450Y-3500D01*
X172950D01*
X173700Y-4250D01*
Y-8750D01*
X172950Y-9500D02*X173700Y-8750D01*
X171450Y-9500D02*X172950D01*
X170700Y-8000D02*X173700Y-5000D01*
X175500Y-8750D02*X176250Y-9500D01*
X175500Y-4250D02*Y-8750D01*
Y-4250D02*X176250Y-3500D01*
X177750D01*
X178500Y-4250D01*
Y-8750D01*
X177750Y-9500D02*X178500Y-8750D01*
X176250Y-9500D02*X177750D01*
X175500Y-8000D02*X178500Y-5000D01*
X180300Y-8750D02*X181050Y-9500D01*
X180300Y-4250D02*Y-8750D01*
Y-4250D02*X181050Y-3500D01*
X182550D01*
X183300Y-4250D01*
Y-8750D01*
X182550Y-9500D02*X183300Y-8750D01*
X181050Y-9500D02*X182550D01*
X180300Y-8000D02*X183300Y-5000D01*
X185100Y-8750D02*X185850Y-9500D01*
X185100Y-4250D02*Y-8750D01*
Y-4250D02*X185850Y-3500D01*
X187350D01*
X188100Y-4250D01*
Y-8750D01*
X187350Y-9500D02*X188100Y-8750D01*
X185850Y-9500D02*X187350D01*
X185100Y-8000D02*X188100Y-5000D01*
X193350Y-7250D02*Y-9500D01*
Y-7250D02*X194100Y-6500D01*
X194850D01*
X195600Y-7250D01*
Y-9500D01*
Y-7250D02*X196350Y-6500D01*
X197100D01*
X197850Y-7250D01*
Y-9500D01*
X192600Y-6500D02*X193350Y-7250D01*
G54D48*X199650Y-5000D02*Y-5150D01*
G54D47*Y-7250D02*Y-9500D01*
X201150Y-3500D02*Y-8750D01*
X201900Y-9500D01*
X206850Y-7250D02*Y-9500D01*
Y-7250D02*X207600Y-6500D01*
X209100D01*
X206100D02*X206850Y-7250D01*
X211650Y-9500D02*X213900D01*
X210900Y-8750D02*X211650Y-9500D01*
X210900Y-7250D02*Y-8750D01*
Y-7250D02*X211650Y-6500D01*
X213150D01*
X213900Y-7250D01*
X210900Y-8000D02*X213900D01*
Y-7250D02*Y-8000D01*
X216450Y-6500D02*X218700D01*
X215700Y-7250D02*X216450Y-6500D01*
X215700Y-7250D02*Y-8750D01*
X216450Y-9500D01*
X218700D01*
X221250Y-3500D02*Y-8750D01*
X222000Y-9500D01*
X220500Y-5750D02*X222000D01*
X225750Y-6500D02*X226500Y-7250D01*
X224250Y-6500D02*X225750D01*
X223500Y-7250D02*X224250Y-6500D01*
X223500Y-7250D02*Y-8750D01*
X224250Y-9500D01*
X226500Y-6500D02*Y-8750D01*
X227250Y-9500D01*
X224250D02*X225750D01*
X226500Y-8750D01*
X229800Y-7250D02*Y-9500D01*
Y-7250D02*X230550Y-6500D01*
X231300D01*
X232050Y-7250D01*
Y-9500D01*
X229050Y-6500D02*X229800Y-7250D01*
X236100Y-6500D02*X236850Y-7250D01*
X234600Y-6500D02*X236100D01*
X233850Y-7250D02*X234600Y-6500D01*
X233850Y-7250D02*Y-8750D01*
X234600Y-9500D01*
X236100D01*
X236850Y-8750D01*
X233850Y-11000D02*X234600Y-11750D01*
X236100D01*
X236850Y-11000D01*
Y-6500D02*Y-11000D01*
X238650Y-3500D02*Y-8750D01*
X239400Y-9500D01*
X241650D02*X243900D01*
X240900Y-8750D02*X241650Y-9500D01*
X240900Y-7250D02*Y-8750D01*
Y-7250D02*X241650Y-6500D01*
X243150D01*
X243900Y-7250D01*
X240900Y-8000D02*X243900D01*
Y-7250D02*Y-8000D01*
X248400Y-6500D02*X251400D01*
X255900Y-8750D02*X256650Y-9500D01*
X255900Y-4250D02*Y-8750D01*
Y-4250D02*X256650Y-3500D01*
X258150D01*
X258900Y-4250D01*
Y-8750D01*
X258150Y-9500D02*X258900Y-8750D01*
X256650Y-9500D02*X258150D01*
X255900Y-8000D02*X258900Y-5000D01*
X260700Y-11000D02*X262200Y-9500D01*
X264000Y-8750D02*X264750Y-9500D01*
X264000Y-4250D02*Y-8750D01*
Y-4250D02*X264750Y-3500D01*
X266250D01*
X267000Y-4250D01*
Y-8750D01*
X266250Y-9500D02*X267000Y-8750D01*
X264750Y-9500D02*X266250D01*
X264000Y-8000D02*X267000Y-5000D01*
X272250Y-3500D02*Y-8750D01*
X273000Y-9500D01*
X271500Y-5750D02*X273000D01*
X274500Y-7250D02*Y-8750D01*
Y-7250D02*X275250Y-6500D01*
X276750D01*
X277500Y-7250D01*
Y-8750D01*
X276750Y-9500D02*X277500Y-8750D01*
X275250Y-9500D02*X276750D01*
X274500Y-8750D02*X275250Y-9500D01*
X282000Y-4700D02*X283200Y-3500D01*
Y-9500D01*
X282000D02*X284250D01*
X286050Y-7250D02*X289050Y-3500D01*
X286050Y-7250D02*X289800D01*
X289050Y-3500D02*Y-9500D01*
X291600Y-8750D02*X292350Y-9500D01*
X291600Y-7550D02*Y-8750D01*
Y-7550D02*X292650Y-6500D01*
X293550D01*
X294600Y-7550D01*
Y-8750D01*
X293850Y-9500D02*X294600Y-8750D01*
X292350Y-9500D02*X293850D01*
X291600Y-5450D02*X292650Y-6500D01*
X291600Y-4250D02*Y-5450D01*
Y-4250D02*X292350Y-3500D01*
X293850D01*
X294600Y-4250D01*
Y-5450D01*
X293550Y-6500D02*X294600Y-5450D01*
X296400Y-8750D02*X297150Y-9500D01*
X296400Y-4250D02*Y-8750D01*
Y-4250D02*X297150Y-3500D01*
X298650D01*
X299400Y-4250D01*
Y-8750D01*
X298650Y-9500D02*X299400Y-8750D01*
X297150Y-9500D02*X298650D01*
X296400Y-8000D02*X299400Y-5000D01*
X301200Y-9500D02*X301950D01*
X303750Y-8750D02*X304500Y-9500D01*
X303750Y-4250D02*Y-8750D01*
Y-4250D02*X304500Y-3500D01*
X306000D01*
X306750Y-4250D01*
Y-8750D01*
X306000Y-9500D02*X306750Y-8750D01*
X304500Y-9500D02*X306000D01*
X303750Y-8000D02*X306750Y-5000D01*
X308550Y-8750D02*X309300Y-9500D01*
X308550Y-4250D02*Y-8750D01*
Y-4250D02*X309300Y-3500D01*
X310800D01*
X311550Y-4250D01*
Y-8750D01*
X310800Y-9500D02*X311550Y-8750D01*
X309300Y-9500D02*X310800D01*
X308550Y-8000D02*X311550Y-5000D01*
X313350Y-8750D02*X314100Y-9500D01*
X313350Y-4250D02*Y-8750D01*
Y-4250D02*X314100Y-3500D01*
X315600D01*
X316350Y-4250D01*
Y-8750D01*
X315600Y-9500D02*X316350Y-8750D01*
X314100Y-9500D02*X315600D01*
X313350Y-8000D02*X316350Y-5000D01*
X318150Y-8750D02*X318900Y-9500D01*
X318150Y-4250D02*Y-8750D01*
Y-4250D02*X318900Y-3500D01*
X320400D01*
X321150Y-4250D01*
Y-8750D01*
X320400Y-9500D02*X321150Y-8750D01*
X318900Y-9500D02*X320400D01*
X318150Y-8000D02*X321150Y-5000D01*
X322950Y-8750D02*X323700Y-9500D01*
X322950Y-4250D02*Y-8750D01*
Y-4250D02*X323700Y-3500D01*
X325200D01*
X325950Y-4250D01*
Y-8750D01*
X325200Y-9500D02*X325950Y-8750D01*
X323700Y-9500D02*X325200D01*
X322950Y-8000D02*X325950Y-5000D01*
X327750Y-8750D02*X328500Y-9500D01*
X327750Y-4250D02*Y-8750D01*
Y-4250D02*X328500Y-3500D01*
X330000D01*
X330750Y-4250D01*
Y-8750D01*
X330000Y-9500D02*X330750Y-8750D01*
X328500Y-9500D02*X330000D01*
X327750Y-8000D02*X330750Y-5000D01*
X332550Y-11000D02*X334050Y-9500D01*
X335850Y-4700D02*X337050Y-3500D01*
Y-9500D01*
X335850D02*X338100D01*
X342150Y-3500D02*X342900Y-4250D01*
X340650Y-3500D02*X342150D01*
X339900Y-4250D02*X340650Y-3500D01*
X339900Y-4250D02*Y-8750D01*
X340650Y-9500D01*
X342150Y-6200D02*X342900Y-6950D01*
X339900Y-6200D02*X342150D01*
X340650Y-9500D02*X342150D01*
X342900Y-8750D01*
Y-6950D02*Y-8750D01*
X344700D02*X345450Y-9500D01*
X344700Y-4250D02*Y-8750D01*
Y-4250D02*X345450Y-3500D01*
X346950D01*
X347700Y-4250D01*
Y-8750D01*
X346950Y-9500D02*X347700Y-8750D01*
X345450Y-9500D02*X346950D01*
X344700Y-8000D02*X347700Y-5000D01*
X349500Y-8750D02*X350250Y-9500D01*
X349500Y-4250D02*Y-8750D01*
Y-4250D02*X350250Y-3500D01*
X351750D01*
X352500Y-4250D01*
Y-8750D01*
X351750Y-9500D02*X352500Y-8750D01*
X350250Y-9500D02*X351750D01*
X349500Y-8000D02*X352500Y-5000D01*
X354300Y-9500D02*X355050D01*
X356850Y-8750D02*X357600Y-9500D01*
X356850Y-4250D02*Y-8750D01*
Y-4250D02*X357600Y-3500D01*
X359100D01*
X359850Y-4250D01*
Y-8750D01*
X359100Y-9500D02*X359850Y-8750D01*
X357600Y-9500D02*X359100D01*
X356850Y-8000D02*X359850Y-5000D01*
X361650Y-8750D02*X362400Y-9500D01*
X361650Y-4250D02*Y-8750D01*
Y-4250D02*X362400Y-3500D01*
X363900D01*
X364650Y-4250D01*
Y-8750D01*
X363900Y-9500D02*X364650Y-8750D01*
X362400Y-9500D02*X363900D01*
X361650Y-8000D02*X364650Y-5000D01*
X366450Y-8750D02*X367200Y-9500D01*
X366450Y-4250D02*Y-8750D01*
Y-4250D02*X367200Y-3500D01*
X368700D01*
X369450Y-4250D01*
Y-8750D01*
X368700Y-9500D02*X369450Y-8750D01*
X367200Y-9500D02*X368700D01*
X366450Y-8000D02*X369450Y-5000D01*
X371250Y-8750D02*X372000Y-9500D01*
X371250Y-4250D02*Y-8750D01*
Y-4250D02*X372000Y-3500D01*
X373500D01*
X374250Y-4250D01*
Y-8750D01*
X373500Y-9500D02*X374250Y-8750D01*
X372000Y-9500D02*X373500D01*
X371250Y-8000D02*X374250Y-5000D01*
X376050Y-8750D02*X376800Y-9500D01*
X376050Y-4250D02*Y-8750D01*
Y-4250D02*X376800Y-3500D01*
X378300D01*
X379050Y-4250D01*
Y-8750D01*
X378300Y-9500D02*X379050Y-8750D01*
X376800Y-9500D02*X378300D01*
X376050Y-8000D02*X379050Y-5000D01*
X380850Y-8750D02*X381600Y-9500D01*
X380850Y-4250D02*Y-8750D01*
Y-4250D02*X381600Y-3500D01*
X383100D01*
X383850Y-4250D01*
Y-8750D01*
X383100Y-9500D02*X383850Y-8750D01*
X381600Y-9500D02*X383100D01*
X380850Y-8000D02*X383850Y-5000D01*
X389100Y-7250D02*Y-9500D01*
Y-7250D02*X389850Y-6500D01*
X390600D01*
X391350Y-7250D01*
Y-9500D01*
Y-7250D02*X392100Y-6500D01*
X392850D01*
X393600Y-7250D01*
Y-9500D01*
X388350Y-6500D02*X389100Y-7250D01*
G54D48*X395400Y-5000D02*Y-5150D01*
G54D47*Y-7250D02*Y-9500D01*
X396900Y-3500D02*Y-8750D01*
X397650Y-9500D01*
X399900D02*X402150D01*
X402900Y-8750D01*
X402150Y-8000D02*X402900Y-8750D01*
X399900Y-8000D02*X402150D01*
X399150Y-7250D02*X399900Y-8000D01*
X399150Y-7250D02*X399900Y-6500D01*
X402150D01*
X402900Y-7250D01*
X399150Y-8750D02*X399900Y-9500D01*
X200750Y188500D02*Y182500D01*
X202700Y188500D02*X203750Y187450D01*
Y183550D01*
X202700Y182500D02*X203750Y183550D01*
X200000Y182500D02*X202700D01*
X200000Y188500D02*X202700D01*
X207800Y185500D02*X208550Y184750D01*
X206300Y185500D02*X207800D01*
X205550Y184750D02*X206300Y185500D01*
X205550Y184750D02*Y183250D01*
X206300Y182500D01*
X208550Y185500D02*Y183250D01*
X209300Y182500D01*
X206300D02*X207800D01*
X208550Y183250D01*
X211850Y188500D02*Y183250D01*
X212600Y182500D01*
X211100Y186250D02*X212600D01*
X214850Y182500D02*X217100D01*
X214100Y183250D02*X214850Y182500D01*
X214100Y184750D02*Y183250D01*
Y184750D02*X214850Y185500D01*
X216350D01*
X217100Y184750D01*
X214100Y184000D02*X217100D01*
Y184750D02*Y184000D01*
X218900Y186250D02*X219650D01*
X218900Y184750D02*X219650D01*
X227150Y188500D02*X227900Y187750D01*
X224900Y188500D02*X227150D01*
X224150Y187750D02*X224900Y188500D01*
X224150Y187750D02*Y186250D01*
X224900Y185500D01*
X227150D01*
X227900Y184750D01*
Y183250D01*
X227150Y182500D02*X227900Y183250D01*
X224900Y182500D02*X227150D01*
X224150Y183250D02*X224900Y182500D01*
X229700Y185500D02*Y183250D01*
X230450Y182500D01*
X231950D01*
X232700Y183250D01*
Y185500D02*Y183250D01*
X235250Y184750D02*Y182500D01*
Y184750D02*X236000Y185500D01*
X236750D01*
X237500Y184750D01*
Y182500D01*
X234500Y185500D02*X235250Y184750D01*
X242000Y188500D02*Y182500D01*
Y188500D02*X244250Y185500D01*
X246500Y188500D01*
Y182500D01*
X250550Y185500D02*X251300Y184750D01*
X249050Y185500D02*X250550D01*
X248300Y184750D02*X249050Y185500D01*
X248300Y184750D02*Y183250D01*
X249050Y182500D01*
X251300Y185500D02*Y183250D01*
X252050Y182500D01*
X249050D02*X250550D01*
X251300Y183250D01*
X253850Y185500D02*Y183250D01*
X254600Y182500D01*
X256850Y185500D02*Y181000D01*
X256100Y180250D02*X256850Y181000D01*
X254600Y180250D02*X256100D01*
X253850Y181000D02*X254600Y180250D01*
Y182500D02*X256100D01*
X256850Y183250D01*
X261350Y187750D02*X262100Y188500D01*
X264350D01*
X265100Y187750D01*
Y186250D01*
X261350Y182500D02*X265100Y186250D01*
X261350Y182500D02*X265100D01*
X269150Y188500D02*X269900Y187750D01*
X267650Y188500D02*X269150D01*
X266900Y187750D02*X267650Y188500D01*
X266900Y187750D02*Y183250D01*
X267650Y182500D01*
X269150Y185800D02*X269900Y185050D01*
X266900Y185800D02*X269150D01*
X267650Y182500D02*X269150D01*
X269900Y183250D01*
Y185050D02*Y183250D01*
X274400Y187750D02*X275150Y188500D01*
X277400D01*
X278150Y187750D01*
Y186250D01*
X274400Y182500D02*X278150Y186250D01*
X274400Y182500D02*X278150D01*
X279950Y187750D02*X280700Y188500D01*
X282950D01*
X283700Y187750D01*
Y186250D01*
X279950Y182500D02*X283700Y186250D01*
X279950Y182500D02*X283700D01*
X285500Y186250D02*X286250D01*
X285500Y184750D02*X286250D01*
X288050Y187750D02*X288800Y188500D01*
X291050D01*
X291800Y187750D01*
Y186250D01*
X288050Y182500D02*X291800Y186250D01*
X288050Y182500D02*X291800D01*
X293600Y184750D02*X296600Y188500D01*
X293600Y184750D02*X297350D01*
X296600Y188500D02*Y182500D01*
X299150Y186250D02*X299900D01*
X299150Y184750D02*X299900D01*
X301700Y187750D02*X302450Y188500D01*
X304700D01*
X305450Y187750D01*
Y186250D01*
X301700Y182500D02*X305450Y186250D01*
X301700Y182500D02*X305450D01*
X307250Y187750D02*X308000Y188500D01*
X309500D01*
X310250Y187750D01*
X309500Y182500D02*X310250Y183250D01*
X308000Y182500D02*X309500D01*
X307250Y183250D02*X308000Y182500D01*
Y185800D02*X309500D01*
X310250Y187750D02*Y186550D01*
Y185050D02*Y183250D01*
Y185050D02*X309500Y185800D01*
X310250Y186550D02*X309500Y185800D01*
X314750Y187750D02*X315500Y188500D01*
X317750D01*
X318500Y187750D01*
Y186250D01*
X314750Y182500D02*X318500Y186250D01*
X314750Y182500D02*X318500D01*
X320300Y183250D02*X321050Y182500D01*
X320300Y187750D02*Y183250D01*
Y187750D02*X321050Y188500D01*
X322550D01*
X323300Y187750D01*
Y183250D01*
X322550Y182500D02*X323300Y183250D01*
X321050Y182500D02*X322550D01*
X320300Y184000D02*X323300Y187000D01*
X325100Y187300D02*X326300Y188500D01*
Y182500D01*
X325100D02*X327350D01*
X329900D02*X332150Y185500D01*
Y187750D02*Y185500D01*
X331400Y188500D02*X332150Y187750D01*
X329900Y188500D02*X331400D01*
X329150Y187750D02*X329900Y188500D01*
X329150Y187750D02*Y186250D01*
X329900Y185500D01*
X332150D01*
X336650Y188500D02*Y183250D01*
X337400Y182500D01*
X338900D01*
X339650Y183250D01*
Y188500D02*Y183250D01*
X341450Y188500D02*X344450D01*
X342950D02*Y182500D01*
X347300D02*X349250D01*
X346250Y183550D02*X347300Y182500D01*
X346250Y187450D02*Y183550D01*
Y187450D02*X347300Y188500D01*
X349250D01*
X200000Y202000D02*Y197500D01*
Y202000D02*X201050Y203500D01*
X202700D01*
X203750Y202000D01*
Y197500D01*
X200000Y200500D02*X203750D01*
X205550D02*Y198250D01*
X206300Y197500D01*
X207800D01*
X208550Y198250D01*
Y200500D02*Y198250D01*
X211100Y203500D02*Y198250D01*
X211850Y197500D01*
X210350Y201250D02*X211850D01*
X213350Y203500D02*Y197500D01*
Y199750D02*X214100Y200500D01*
X215600D01*
X216350Y199750D01*
Y197500D01*
X218150Y199750D02*Y198250D01*
Y199750D02*X218900Y200500D01*
X220400D01*
X221150Y199750D01*
Y198250D01*
X220400Y197500D02*X221150Y198250D01*
X218900Y197500D02*X220400D01*
X218150Y198250D02*X218900Y197500D01*
X223700Y199750D02*Y197500D01*
Y199750D02*X224450Y200500D01*
X225950D01*
X222950D02*X223700Y199750D01*
X227750Y201250D02*X228500D01*
X227750Y199750D02*X228500D01*
X200000Y218500D02*X203000D01*
X201500D02*Y212500D01*
G54D48*X204800Y217000D02*Y216850D01*
G54D47*Y214750D02*Y212500D01*
X207050Y218500D02*Y213250D01*
X207800Y212500D01*
X206300Y216250D02*X207800D01*
X209300Y218500D02*Y213250D01*
X210050Y212500D01*
X212300D02*X214550D01*
X211550Y213250D02*X212300Y212500D01*
X211550Y214750D02*Y213250D01*
Y214750D02*X212300Y215500D01*
X213800D01*
X214550Y214750D01*
X211550Y214000D02*X214550D01*
Y214750D02*Y214000D01*
X216350Y216250D02*X217100D01*
X216350Y214750D02*X217100D01*
X222650Y212500D02*X224600D01*
X221600Y213550D02*X222650Y212500D01*
X221600Y217450D02*Y213550D01*
Y217450D02*X222650Y218500D01*
X224600D01*
X226400Y214750D02*Y213250D01*
Y214750D02*X227150Y215500D01*
X228650D01*
X229400Y214750D01*
Y213250D01*
X228650Y212500D02*X229400Y213250D01*
X227150Y212500D02*X228650D01*
X226400Y213250D02*X227150Y212500D01*
X231950Y214750D02*Y212500D01*
Y214750D02*X232700Y215500D01*
X233450D01*
X234200Y214750D01*
Y212500D01*
X231200Y215500D02*X231950Y214750D01*
X236750Y218500D02*Y213250D01*
X237500Y212500D01*
X236000Y216250D02*X237500D01*
X239750Y214750D02*Y212500D01*
Y214750D02*X240500Y215500D01*
X242000D01*
X239000D02*X239750Y214750D01*
X243800D02*Y213250D01*
Y214750D02*X244550Y215500D01*
X246050D01*
X246800Y214750D01*
Y213250D01*
X246050Y212500D02*X246800Y213250D01*
X244550Y212500D02*X246050D01*
X243800Y213250D02*X244550Y212500D01*
X248600Y218500D02*Y213250D01*
X249350Y212500D01*
X250850Y218500D02*Y213250D01*
X251600Y212500D01*
X253850D02*X256100D01*
X253100Y213250D02*X253850Y212500D01*
X253100Y214750D02*Y213250D01*
Y214750D02*X253850Y215500D01*
X255350D01*
X256100Y214750D01*
X253100Y214000D02*X256100D01*
Y214750D02*Y214000D01*
X258650Y214750D02*Y212500D01*
Y214750D02*X259400Y215500D01*
X260900D01*
X257900D02*X258650Y214750D01*
X265400Y215500D02*X268400D01*
X272900Y218500D02*Y212500D01*
Y218500D02*X275900D01*
X272900Y215800D02*X275150D01*
X279950Y215500D02*X280700Y214750D01*
X278450Y215500D02*X279950D01*
X277700Y214750D02*X278450Y215500D01*
X277700Y214750D02*Y213250D01*
X278450Y212500D01*
X280700Y215500D02*Y213250D01*
X281450Y212500D01*
X278450D02*X279950D01*
X280700Y213250D01*
X283250Y218500D02*Y212500D01*
Y213250D02*X284000Y212500D01*
X285500D01*
X286250Y213250D01*
Y214750D02*Y213250D01*
X285500Y215500D02*X286250Y214750D01*
X284000Y215500D02*X285500D01*
X283250Y214750D02*X284000Y215500D01*
X288800Y214750D02*Y212500D01*
Y214750D02*X289550Y215500D01*
X291050D01*
X288050D02*X288800Y214750D01*
G54D48*X292850Y217000D02*Y216850D01*
G54D47*Y214750D02*Y212500D01*
X295100Y215500D02*X297350D01*
X294350Y214750D02*X295100Y215500D01*
X294350Y214750D02*Y213250D01*
X295100Y212500D01*
X297350D01*
X301400Y215500D02*X302150Y214750D01*
X299900Y215500D02*X301400D01*
X299150Y214750D02*X299900Y215500D01*
X299150Y214750D02*Y213250D01*
X299900Y212500D01*
X302150Y215500D02*Y213250D01*
X302900Y212500D01*
X299900D02*X301400D01*
X302150Y213250D01*
X305450Y218500D02*Y213250D01*
X306200Y212500D01*
X304700Y216250D02*X306200D01*
G54D48*X307700Y217000D02*Y216850D01*
G54D47*Y214750D02*Y212500D01*
X309200Y214750D02*Y213250D01*
Y214750D02*X309950Y215500D01*
X311450D01*
X312200Y214750D01*
Y213250D01*
X311450Y212500D02*X312200Y213250D01*
X309950Y212500D02*X311450D01*
X309200Y213250D02*X309950Y212500D01*
X314750Y214750D02*Y212500D01*
Y214750D02*X315500Y215500D01*
X316250D01*
X317000Y214750D01*
Y212500D01*
X314000Y215500D02*X314750Y214750D01*
X322250Y218500D02*Y212500D01*
X324200Y218500D02*X325250Y217450D01*
Y213550D01*
X324200Y212500D02*X325250Y213550D01*
X321500Y212500D02*X324200D01*
X321500Y218500D02*X324200D01*
X327800Y214750D02*Y212500D01*
Y214750D02*X328550Y215500D01*
X330050D01*
X327050D02*X327800Y214750D01*
X334100Y215500D02*X334850Y214750D01*
X332600Y215500D02*X334100D01*
X331850Y214750D02*X332600Y215500D01*
X331850Y214750D02*Y213250D01*
X332600Y212500D01*
X334850Y215500D02*Y213250D01*
X335600Y212500D01*
X332600D02*X334100D01*
X334850Y213250D01*
X337400Y215500D02*Y213250D01*
X338150Y212500D01*
X338900D01*
X339650Y213250D01*
Y215500D02*Y213250D01*
X340400Y212500D01*
X341150D01*
X341900Y213250D01*
Y215500D02*Y213250D01*
G54D48*X343700Y217000D02*Y216850D01*
G54D47*Y214750D02*Y212500D01*
X345950Y214750D02*Y212500D01*
Y214750D02*X346700Y215500D01*
X347450D01*
X348200Y214750D01*
Y212500D01*
X345200Y215500D02*X345950Y214750D01*
X352250Y215500D02*X353000Y214750D01*
X350750Y215500D02*X352250D01*
X350000Y214750D02*X350750Y215500D01*
X350000Y214750D02*Y213250D01*
X350750Y212500D01*
X352250D01*
X353000Y213250D01*
X350000Y211000D02*X350750Y210250D01*
X352250D01*
X353000Y211000D01*
Y215500D02*Y211000D01*
M02*
