G04 start of page 6 for group -4063 idx -4063 *
G04 Title: Controller, componentmask *
G04 Creator: pcb 4.0.2 *
G04 CreationDate: Sun May 26 22:24:23 2019 UTC *
G04 For: luigi *
G04 Format: Gerber/RS-274X *
G04 PCB-Dimensions (mil): 1480.00 1600.00 *
G04 PCB-Coordinate-Origin: lower left *
%MOIN*%
%FSLAX25Y25*%
%LNTOPMASK*%
%ADD37C,0.0860*%
%ADD36C,0.0962*%
%ADD35C,0.0001*%
%ADD34C,0.0660*%
%ADD33C,0.0740*%
G54D33*X115000Y150000D03*
G54D34*X15000Y80000D03*
Y90000D03*
Y100000D03*
G54D35*G36*
X11300Y113700D02*Y106300D01*
X18700D01*
Y113700D01*
X11300D01*
G37*
G54D33*X15000Y150000D03*
G54D35*G36*
X31700Y153300D02*Y146700D01*
X38300D01*
Y153300D01*
X31700D01*
G37*
G54D34*X35000Y140000D03*
Y130000D03*
Y120000D03*
Y110000D03*
Y100000D03*
Y90000D03*
Y10000D03*
G54D36*X125000Y80000D03*
G54D35*G36*
X110190Y44810D02*Y35190D01*
X119810D01*
Y44810D01*
X110190D01*
G37*
G54D36*X135000Y40000D03*
G54D35*G36*
X111300Y113700D02*Y106300D01*
X118700D01*
Y113700D01*
X111300D01*
G37*
G36*
X131700Y103300D02*Y96700D01*
X138300D01*
Y103300D01*
X131700D01*
G37*
G54D34*X135000Y110000D03*
X95000Y40000D03*
Y50000D03*
Y60000D03*
Y70000D03*
Y80000D03*
Y90000D03*
Y100000D03*
Y110000D03*
Y120000D03*
Y130000D03*
Y140000D03*
Y150000D03*
Y10000D03*
Y20000D03*
Y30000D03*
G54D35*G36*
X10700Y24300D02*Y15700D01*
X19300D01*
Y24300D01*
X10700D01*
G37*
G36*
Y44300D02*Y35700D01*
X19300D01*
Y44300D01*
X10700D01*
G37*
G54D37*X15000Y50000D03*
Y10000D03*
G54D35*G36*
X11700Y73300D02*Y66700D01*
X18300D01*
Y73300D01*
X11700D01*
G37*
G54D34*X35000Y80000D03*
Y70000D03*
Y60000D03*
Y50000D03*
Y40000D03*
Y30000D03*
Y20000D03*
M02*
